<svg width="127" height="131" viewBox="0 0 127 131" fill="none" xmlns="http://www.w3.org/2000/svg">
<path d="M110.329 76.4279C110.337 76.6451 110.259 76.8568 110.112 77.0165C109.965 77.1762 109.76 77.2709 109.543 77.2798L19.4558 80.898C19.2386 80.9068 19.0268 80.8288 18.867 80.6814C18.7073 80.534 18.6126 80.3292 18.6039 80.112C18.5952 79.8948 18.6731 79.683 18.8205 79.5232C18.9679 79.3635 19.1728 79.2688 19.39 79.2601L109.477 75.6418C109.694 75.6333 109.906 75.7112 110.066 75.8586C110.225 76.006 110.32 76.2108 110.329 76.4279ZM17.2848 26.8458L107.372 23.2276C107.589 23.2188 107.794 23.1242 107.941 22.9644C108.089 22.8047 108.167 22.5929 108.158 22.3757C108.149 22.1585 108.055 21.9537 107.895 21.8062C107.735 21.6588 107.523 21.5809 107.306 21.5896L17.219 25.2079C17.0018 25.2166 16.797 25.3113 16.6496 25.471C16.5021 25.6308 16.4242 25.8426 16.4329 26.0598C16.4417 26.277 16.5363 26.4818 16.6961 26.6292C16.8558 26.7766 17.0676 26.8546 17.2848 26.8458ZM43.982 17.5706L50.5338 17.3075L50.6653 20.5834L73.5966 19.6624L73.465 16.3865L80.0168 16.1233C81.32 16.071 82.5491 15.5031 83.4336 14.5445C84.3181 13.586 84.7856 12.3154 84.7333 11.0121C84.6809 9.70889 84.113 8.47983 83.1545 7.59532C82.1959 6.71081 80.9253 6.2433 79.6221 6.29565L43.5873 7.74295C42.284 7.7953 41.055 8.3632 40.1705 9.32174C39.2859 10.2803 38.8184 11.5509 38.8708 12.8542C38.9231 14.1574 39.491 15.3864 40.4496 16.271C41.4081 17.1555 42.6788 17.623 43.982 17.5706ZM70.1368 96.909C70.1768 97.8105 69.968 98.7057 69.5331 99.4966C69.0983 100.287 68.4543 100.943 67.6715 101.392C66.8888 101.842 65.9975 102.067 65.0954 102.043C64.1932 102.02 63.3149 101.748 62.5567 101.259C61.7985 100.769 61.1896 100.081 60.7966 99.2683C60.4037 98.4559 60.2419 97.551 60.3289 96.6527C60.416 95.7544 60.7486 94.8974 61.2902 94.1756C61.8318 93.4537 62.5617 92.8948 63.3998 92.5601L62.9929 82.4306L66.2688 82.299L66.6756 92.4285C67.6445 92.7267 68.4973 93.3174 69.1171 94.1196C69.7368 94.9218 70.093 95.8962 70.1368 96.909ZM66.8609 97.0405C66.8479 96.7166 66.7391 96.4037 66.5483 96.1416C66.3575 95.8795 66.0932 95.6798 65.789 95.5679C65.4847 95.4559 65.1541 95.4367 64.8389 95.5127C64.5237 95.5886 64.2381 95.7564 64.0182 95.9946C63.7983 96.2329 63.6541 96.531 63.6036 96.8513C63.5532 97.1716 63.5989 97.4996 63.7348 97.7939C63.8708 98.0882 64.0911 98.3356 64.3676 98.5048C64.6442 98.6739 64.9648 98.7573 65.2887 98.7443C65.7229 98.7263 66.1323 98.5368 66.427 98.2174C66.7217 97.898 66.8778 97.4748 66.8609 97.0405ZM84.2795 40.5609C84.6034 40.5479 84.9163 40.4391 85.1784 40.2483C85.4405 40.0575 85.6402 39.7933 85.7521 39.489C85.8641 39.1847 85.8833 38.8541 85.8073 38.5389C85.7314 38.2237 85.5636 37.9381 85.3254 37.7183C85.0871 37.4984 84.789 37.3541 84.4687 37.3037C84.1484 37.2532 83.8204 37.2989 83.5261 37.4349C83.2318 37.5709 82.9844 37.7911 82.8152 38.0677C82.6461 38.3443 82.5627 38.6648 82.5757 38.9888C82.5935 39.4231 82.7829 39.8326 83.1023 40.1274C83.4218 40.4222 83.8451 40.5781 84.2795 40.5609ZM78.5171 60.4794C78.8411 60.4664 79.1539 60.3576 79.416 60.1668C79.6782 59.976 79.8778 59.7118 79.9898 59.4075C80.1017 59.1032 80.121 58.7726 80.045 58.4574C79.969 58.1422 79.8013 57.8566 79.563 57.6368C79.3248 57.4169 79.0266 57.2726 78.7064 57.2222C78.3861 57.1717 78.0581 57.2174 77.7638 57.3534C77.4694 57.4894 77.2221 57.7096 77.0529 57.9862C76.8837 58.2628 76.8004 58.5833 76.8134 58.9073C76.8311 59.3416 77.0205 59.7511 77.34 60.0459C77.6594 60.3406 78.0828 60.4966 78.5171 60.4794ZM68.2947 51.0465C68.6187 51.0335 68.9315 50.9247 69.1936 50.7339C69.4558 50.5431 69.6554 50.2788 69.7674 49.9746C69.8793 49.6703 69.8986 49.3396 69.8226 49.0245C69.7466 48.7093 69.5789 48.4237 69.3406 48.2038C69.1024 47.9839 68.8043 47.8397 68.484 47.7892C68.1637 47.7388 67.8357 47.7844 67.5414 47.9204C67.247 48.0564 66.9997 48.2766 66.8305 48.5532C66.6613 48.8298 66.578 49.1504 66.591 49.4743C66.6087 49.9086 66.7981 50.3181 67.1176 50.6129C67.437 50.9077 67.8604 51.0636 68.2947 51.0465ZM20.0774 75.9513L18.2354 30.0888L106.684 26.5364L108.526 72.3988L20.0774 75.9513ZM34.49 67.1695C34.5437 68.4722 35.112 69.7005 36.0703 70.5847C37.0285 71.4689 38.2983 71.9369 39.6012 71.886L92.0154 69.7808C92.4498 69.7634 92.8595 69.5741 93.1544 69.2545C93.4492 68.935 93.605 68.5115 93.5876 68.0771C93.5701 67.6427 93.3808 67.233 93.0613 66.9381C92.7418 66.6433 92.3183 66.4875 91.8838 66.5049L39.4696 68.6101C39.0353 68.6272 38.6119 68.4713 38.2924 68.1765C37.973 67.8818 37.7836 67.4722 37.7659 67.0379L37.5685 62.1241L73.9052 60.6647C74.3355 61.742 75.1328 62.6325 76.1562 63.1788C77.1796 63.7251 78.3631 63.892 79.4977 63.6501C80.6322 63.4081 81.6447 62.7729 82.3562 61.8567C83.0677 60.9404 83.4324 59.8021 83.3858 58.643C83.3392 57.4839 82.8844 56.3785 82.1016 55.5224C81.3189 54.6662 80.2587 54.1142 79.1084 53.9641C77.9581 53.814 76.7917 54.0754 75.8155 54.7021C74.8393 55.3288 74.116 56.2804 73.7735 57.3888L37.4369 58.8482L37.1738 52.2964L63.6828 51.2317C64.1131 52.309 64.9104 53.1995 65.9338 53.7458C66.9572 54.2921 68.1407 54.4591 69.2753 54.2171C70.4098 53.9752 71.4223 53.34 72.1338 52.4237C72.8453 51.5075 73.21 50.3692 73.1634 49.2101C73.1168 48.0509 72.662 46.9456 71.8792 46.0894C71.0965 45.2332 70.0363 44.6813 68.886 44.5312C67.7357 44.3811 66.5693 44.6425 65.5931 45.2692C64.6169 45.8958 63.8936 46.8475 63.5512 47.9558L37.0422 49.0205L36.7791 42.4687L79.6676 40.7462C80.0979 41.8235 80.8952 42.714 81.9185 43.2603C82.9419 43.8066 84.1255 43.9735 85.26 43.7316C86.3946 43.4896 87.4071 42.8544 88.1186 41.9382C88.8301 41.0219 89.1948 39.8836 89.1482 38.7245C89.1016 37.5654 88.6467 36.46 87.864 35.6039C87.0812 34.7477 86.021 34.1957 84.8707 34.0457C83.7204 33.8956 82.5541 34.1569 81.5778 34.7836C80.6016 35.4103 79.8783 36.3619 79.5359 37.4703L36.6475 39.1929L36.4501 34.279C36.4327 33.8446 36.2434 33.4349 35.9239 33.1401C35.6043 32.8452 35.1808 32.6894 34.7464 32.7069C34.312 32.7243 33.9023 32.9136 33.6075 33.2331C33.3126 33.5526 33.1568 33.9762 33.1742 34.4106L34.49 67.1695Z" fill="#323E4C"/>
<path d="M7.0803 129.513C5.09649 129.566 3.4341 128.97 2.09314 127.727C0.751843 126.472 0.0551503 124.899 0.0030753 123.008C-0.0489997 121.117 0.560277 119.516 1.8309 118.205C3.1012 116.881 4.72824 116.193 6.71205 116.141C7.90484 116.109 9.01108 116.356 10.0307 116.883C11.063 117.408 11.8746 118.137 12.4657 119.067L10.6117 120.185C10.2426 119.556 9.71394 119.066 9.02578 118.716C8.34985 118.352 7.59754 118.182 6.76886 118.203C5.36262 118.241 4.23205 118.706 3.37716 119.602C2.53482 120.496 2.13209 121.613 2.16894 122.952C2.2058 124.289 2.6694 125.383 3.55976 126.232C4.46267 127.082 5.61724 127.487 7.02348 127.449C7.85217 127.428 8.60044 127.224 9.26827 126.838C9.93583 126.44 10.4303 125.917 10.7517 125.269L12.6639 126.269C12.1376 127.229 11.3736 128.005 10.3722 128.597C9.38297 129.176 8.28565 129.481 7.0803 129.513ZM16.1213 118.068C15.877 118.32 15.579 118.451 15.2275 118.46C14.8758 118.469 14.5649 118.355 14.2945 118.116C14.0362 117.865 13.9024 117.567 13.893 117.223C13.8834 116.879 14.0008 116.581 14.2453 116.329C14.4893 116.065 14.7934 115.928 15.1574 115.918C15.5216 115.909 15.8327 116.029 16.0909 116.281C16.3488 116.52 16.4825 116.811 16.4919 117.155C16.5015 117.499 16.3778 117.803 16.1213 118.068ZM14.502 129.078L14.2485 119.868L16.2825 119.814L16.5361 129.024L14.502 129.078ZM20.7208 121.246C21.2042 120.091 22.1552 119.494 23.574 119.457L23.6333 121.612C22.8536 121.583 22.1807 121.786 21.6146 122.218C21.0482 122.638 20.778 123.322 20.804 124.267L20.9318 128.908L18.8978 128.962L18.6442 119.752L20.6782 119.699L20.7208 121.246ZM29.345 128.926C27.9262 128.963 26.7268 128.528 25.7469 127.62C24.7795 126.712 24.277 125.576 24.2396 124.214C24.2016 122.837 24.6408 121.677 25.5571 120.732C26.4857 119.773 27.6593 119.275 29.0781 119.237C29.9948 119.214 30.8356 119.407 31.6008 119.816C32.366 120.226 32.9469 120.789 33.3435 121.503L31.6193 122.544C31.3937 122.108 31.0579 121.773 30.6116 121.538C30.1776 121.292 29.6781 121.176 29.1131 121.19C28.2844 121.212 27.5952 121.508 27.0454 122.075C26.5082 122.642 26.2509 123.337 26.2735 124.16C26.2962 124.983 26.5913 125.662 27.159 126.2C27.7393 126.738 28.4438 126.996 29.2724 126.974C29.8248 126.96 30.3173 126.818 30.7496 126.548C31.1945 126.278 31.5241 125.926 31.7382 125.491L33.5166 126.42C33.1352 127.168 32.5736 127.766 31.8321 128.216C31.0906 128.666 30.2615 128.903 29.345 128.926ZM41.1947 119.158L43.2286 119.104L43.4822 128.314L41.4483 128.368L41.4158 127.189C40.8266 128.151 39.8666 128.649 38.5356 128.684C37.4558 128.712 36.5739 128.398 35.8899 127.74C35.2059 127.083 34.8476 126.164 34.8151 124.985L34.6593 119.331L36.6934 119.277L36.8435 124.729C36.8625 125.417 37.0653 125.94 37.4521 126.298C37.839 126.657 38.3589 126.827 39.0118 126.81C39.7274 126.791 40.299 126.561 40.7267 126.12C41.154 125.666 41.3553 124.991 41.3306 124.094L41.1947 119.158ZM47.4799 117.242C47.2356 117.494 46.9377 117.625 46.5861 117.634C46.2346 117.643 45.9235 117.529 45.6531 117.29C45.3949 117.039 45.2611 116.741 45.2516 116.397C45.2421 116.053 45.3596 115.755 45.6039 115.503C45.848 115.239 46.152 115.102 46.5161 115.092C46.8802 115.083 47.1913 115.203 47.4496 115.455C47.7074 115.694 47.8411 115.985 47.8507 116.329C47.8601 116.673 47.7366 116.977 47.4799 117.242ZM45.8608 128.251L45.6071 119.043L47.6412 118.989L47.8948 128.199L45.8608 128.251ZM55.3102 120.704L52.9749 120.765L53.0966 125.186C53.1071 125.566 53.2026 125.841 53.383 126.008C53.5633 126.163 53.8231 126.248 54.1628 126.263C54.5148 126.267 54.9478 126.249 55.4619 126.211L55.511 127.998C53.9592 128.223 52.8382 128.123 52.1481 127.699C51.4575 127.262 51.0957 126.443 51.0625 125.24L50.9408 120.819L49.2081 120.865L49.1553 118.949L50.888 118.904L50.8332 116.914L52.8511 116.271L52.9221 118.85L55.2574 118.788L55.3102 120.704ZM67.2099 120.391L64.8745 120.451L64.9963 124.872C65.0068 125.252 65.1022 125.527 65.2828 125.694C65.4629 125.849 65.7229 125.934 66.0626 125.95C66.4144 125.953 66.8475 125.935 67.3617 125.898L67.4108 127.684C65.859 127.909 64.738 127.81 64.0477 127.385C63.3573 126.948 62.9954 126.129 62.9623 124.926L62.8406 120.505L61.1079 120.551L61.0551 118.635L62.7878 118.59L62.733 116.6L64.7509 115.958L64.8219 118.536L67.1572 118.475L67.2099 120.391ZM71.1705 119.917C71.6539 118.761 72.605 118.165 74.0237 118.128L74.0832 120.283C73.3033 120.254 72.6304 120.456 72.0643 120.889C71.4979 121.309 71.2277 121.992 71.2537 122.938L71.3816 127.58L69.3476 127.633L69.094 118.424L71.1279 118.37L71.1705 119.917ZM82.5479 118.069L84.582 118.016L84.8356 127.225L82.8015 127.279L82.765 125.953C82.0279 127.016 80.9436 127.567 79.5122 127.605C78.219 127.64 77.1012 127.202 76.159 126.292C75.2163 125.371 74.7265 124.235 74.6893 122.884C74.6518 121.522 75.0784 120.362 75.9692 119.403C76.8601 118.446 77.9522 117.951 79.2454 117.917C80.6768 117.879 81.7896 118.366 82.5839 119.378L82.5479 118.069ZM77.6291 124.927C78.2093 125.464 78.9264 125.722 79.7802 125.7C80.6339 125.677 81.3357 125.382 81.8856 124.815C82.435 124.235 82.6981 123.521 82.6748 122.674C82.6514 121.826 82.3497 121.134 81.7693 120.596C81.1888 120.046 80.4716 119.783 79.6178 119.805C78.7641 119.828 78.0624 120.129 77.513 120.708C76.9632 121.276 76.6999 121.983 76.7233 122.83C76.7466 123.678 77.0486 124.377 77.6291 124.927ZM88.8255 116.153C88.5812 116.405 88.2833 116.536 87.9317 116.545C87.5802 116.554 87.2691 116.44 86.9987 116.201C86.7405 115.95 86.6067 115.652 86.5972 115.308C86.5877 114.965 86.7052 114.667 86.9495 114.414C87.1936 114.15 87.4976 114.013 87.8618 114.003C88.2259 113.994 88.5371 114.114 88.7952 114.366C89.0532 114.605 89.1868 114.896 89.1963 115.24C89.2057 115.584 89.0822 115.888 88.8255 116.153ZM87.2064 127.162L86.9527 117.953L88.9868 117.9L89.2404 127.11L87.2064 127.162ZM96.2951 117.468C97.3749 117.439 98.2568 117.754 98.941 118.412C99.625 119.069 99.9832 119.988 100.016 121.167L100.171 126.821L98.1373 126.875L97.9872 121.423C97.9683 120.735 97.7654 120.212 97.3786 119.854C96.9918 119.495 96.472 119.325 95.819 119.341C95.1033 119.36 94.5318 119.597 94.1045 120.05C93.677 120.492 93.4755 121.161 93.5002 122.058L93.6362 126.993L91.6021 127.047L91.3485 117.837L93.3826 117.784L93.415 118.963C94.0042 118.001 94.9643 117.503 96.2951 117.468ZM103.981 115.754C103.736 116.006 103.438 116.137 103.087 116.146C102.735 116.155 102.424 116.04 102.154 115.802C101.896 115.55 101.762 115.253 101.752 114.909C101.743 114.565 101.86 114.267 102.105 114.015C102.349 113.751 102.653 113.614 103.017 113.604C103.381 113.594 103.692 113.715 103.95 113.966C104.208 114.205 104.342 114.497 104.351 114.841C104.361 115.185 104.237 115.489 103.981 115.754ZM102.362 126.763L102.108 117.554L104.142 117.5L104.396 126.71L102.362 126.763ZM111.45 117.068C112.53 117.04 113.412 117.355 114.096 118.012C114.78 118.67 115.138 119.589 115.171 120.768L115.326 126.422L113.293 126.476L113.142 121.023C113.123 120.336 112.921 119.813 112.534 119.455C112.147 119.096 111.627 118.926 110.974 118.942C110.259 118.961 109.687 119.198 109.26 119.651C108.832 120.093 108.631 120.762 108.655 121.658L108.791 126.594L106.757 126.647L106.504 117.438L108.538 117.385L108.57 118.563C109.159 117.602 110.119 117.103 111.45 117.068ZM124.759 116.957L126.755 116.905L126.998 125.69C127.036 127.091 126.594 128.178 125.673 128.952C124.753 129.725 123.62 130.129 122.277 130.166C120.105 130.223 118.596 129.519 117.751 128.054L119.476 127.013C119.992 127.945 120.921 128.395 122.264 128.359C123.144 128.336 123.822 128.09 124.299 127.623C124.788 127.168 125.022 126.541 125.001 125.743L124.97 124.62C124.233 125.708 123.156 126.271 121.737 126.309C120.406 126.344 119.269 125.913 118.328 125.015C117.386 124.106 116.897 122.995 116.86 121.682C116.824 120.367 117.251 119.237 118.143 118.293C119.033 117.336 120.144 116.839 121.475 116.804C122.894 116.767 124.001 117.272 124.797 118.32L124.759 116.957ZM119.798 123.668C120.391 124.205 121.115 124.463 121.968 124.441C122.821 124.418 123.523 124.124 124.073 123.555C124.636 122.988 124.905 122.292 124.883 121.47C124.86 120.648 124.553 119.967 123.96 119.43C123.38 118.892 122.663 118.635 121.809 118.657C120.955 118.679 120.247 118.975 119.685 119.542C119.135 120.111 118.872 120.805 118.893 121.628C118.916 122.451 119.218 123.13 119.798 123.668Z" fill="#323E4C"/>
</svg>
