<svg width="161" height="168" viewBox="0 0 161 168" fill="none" xmlns="http://www.w3.org/2000/svg">
<g clip-path="url(#clip0_36_2)">
<path d="M80.6004 0.5C79.2596 0.5 78.1625 1.62906 78.1625 3.00902V13.0451C78.1625 14.4251 79.2596 15.5541 80.6004 15.5541C81.9413 15.5541 83.0384 14.4251 83.0384 13.0451V3.00902C83.0384 1.62906 81.9413 0.5 80.6004 0.5Z" fill="#E26972"/>
<path d="M80.6004 115.914C79.2596 115.914 78.1625 117.043 78.1625 118.423V128.459C78.1625 129.839 79.2596 130.968 80.6004 130.968C81.9413 130.968 83.0384 129.839 83.0384 128.459V118.423C83.0384 117.043 81.9413 115.914 80.6004 115.914Z" fill="#E26972"/>
<path d="M60.803 17.0848C61.1686 18.1135 62.0951 18.7407 63.0946 18.7407C63.3628 18.7407 63.6554 18.6906 63.9235 18.5901C65.1912 18.1135 65.8495 16.6833 65.3863 15.3787L62.0464 5.94475C61.5831 4.64006 60.1935 3.96261 58.9258 4.43933C57.658 4.91604 56.9998 6.34619 57.4631 7.65088L60.803 17.0848Z" fill="#E26972"/>
<path d="M100.395 114.384C99.9317 113.079 98.542 112.402 97.2743 112.879C96.0065 113.355 95.3484 114.786 95.8116 116.09L99.1515 125.524C99.5171 126.553 100.444 127.18 101.443 127.18C101.711 127.18 102.004 127.13 102.272 127.03C103.54 126.553 104.198 125.123 103.735 123.818L100.395 114.384Z" fill="#E26972"/>
<path d="M45.8142 26.9968C46.3017 27.5989 46.9844 27.9 47.6914 27.9C48.2521 27.9 48.7884 27.6992 49.2516 27.3229C50.2755 26.4448 50.4218 24.8389 49.5442 23.7852L43.2787 16.1076C42.4254 15.0538 40.8896 14.9032 39.8412 15.8065C38.8173 16.6846 38.6711 18.2905 39.5487 19.3443L45.8142 26.9968Z" fill="#E26972"/>
<path d="M115.37 104.475C114.517 103.421 112.981 103.27 111.933 104.174C110.909 105.052 110.762 106.657 111.64 107.711L117.906 115.389C118.393 115.991 119.076 116.292 119.783 116.292C120.344 116.292 120.88 116.091 121.343 115.715C122.367 114.837 122.513 113.231 121.636 112.177L115.37 104.475Z" fill="#E26972"/>
<path d="M97.2743 18.5901C97.5424 18.6906 97.835 18.7407 98.1032 18.7407C99.1027 18.7407 100.029 18.1135 100.395 17.0848L103.735 7.65088C104.198 6.34619 103.54 4.91604 102.272 4.43933C101.004 3.96261 99.6147 4.64006 99.1515 5.94475L95.8116 15.3787C95.3484 16.6583 96.0065 18.1135 97.2743 18.5901Z" fill="#E26972"/>
<path d="M63.9235 112.879C62.6558 112.402 61.2662 113.079 60.803 114.384L57.4631 123.818C56.9998 125.123 57.658 126.553 58.9258 127.03C59.194 127.13 59.4865 127.18 59.7547 127.18C60.7542 127.18 61.6806 126.553 62.0464 125.524L65.3863 116.09C65.8495 114.811 65.1912 113.355 63.9235 112.879Z" fill="#E26972"/>
<path d="M113.513 27.8739C114.22 27.8739 114.902 27.5729 115.39 26.9707L121.655 19.2931C122.533 18.2393 122.387 16.6587 121.363 15.7554C120.339 14.8773 118.803 15.0026 117.925 16.0564L111.66 23.7341C110.782 24.7878 110.929 26.3686 111.953 27.2718C112.391 27.6983 112.952 27.8739 113.513 27.8739Z" fill="#E26972"/>
<path d="M45.814 104.474L39.5486 112.151C38.6953 113.205 38.8171 114.786 39.8411 115.689C40.3043 116.09 40.865 116.266 41.4014 116.266C42.1084 116.266 42.791 115.965 43.2786 115.363L49.544 107.685C50.3973 106.632 50.2754 105.051 49.2514 104.148C48.2275 103.294 46.6917 103.42 45.814 104.474Z" fill="#E26972"/>
<path d="M78.309 89.7221C77.6751 89.973 76.9925 90.1987 76.2368 90.274C76.0173 90.2992 75.7491 90.3242 75.5053 90.3242C73.9695 90.3242 71.8972 89.8224 69.7762 87.8654C68.7766 86.937 68.6791 85.3563 69.5811 84.3276C70.4832 83.299 72.0191 83.1985 73.0187 84.1269C73.9695 85.0051 74.8714 85.3814 75.7491 85.3061C76.7975 85.2058 77.7483 84.4531 78.3333 83.876V44.7603C78.3333 40.0936 74.6521 36.3051 70.1175 36.3051C65.778 36.3051 62.2431 39.7674 61.9261 44.1332C61.9748 44.4091 62.1699 45.3374 62.9988 46.04C63.9252 46.8178 65.461 47.1188 67.4358 46.8931C68.7523 46.7174 69.9712 47.7461 70.1175 49.1261C70.2638 50.5061 69.2887 51.7355 67.9478 51.886C67.3626 51.9363 66.8019 51.9864 66.2412 51.9864C63.6083 51.9864 61.4629 51.2587 59.8051 49.8287C58.318 48.549 57.6354 46.9935 57.3185 45.8644C55.2706 47.3949 53.9298 49.8788 53.9298 52.6889C53.9298 53.7175 54.1247 54.671 54.4417 55.5993C54.588 55.6998 54.7343 55.8001 54.8561 55.9506C55.0512 56.2015 56.8308 58.1836 59.9026 57.1801C61.1703 56.7536 62.56 57.4812 62.9744 58.8109C63.3888 60.1407 62.6818 61.5458 61.3898 61.9723C60.2195 62.3486 59.1469 62.5243 58.1717 62.5243C54.978 62.5243 52.7839 60.8683 51.7356 59.8647C49.6634 61.8468 48.3712 64.6318 48.3712 67.7681C48.3712 70.9295 49.7121 73.7647 51.8331 75.7468C52.3451 75.4709 52.9545 75.3704 53.564 75.521C53.6128 75.546 58.2693 76.7253 61.6824 73.6643C62.7063 72.761 64.2421 72.8614 65.1198 73.9152C65.9974 74.9689 65.8999 76.5497 64.876 77.4529C61.853 80.1626 58.3668 80.7649 55.8313 80.7649C55.1487 80.7649 54.5636 80.7147 54.0516 80.6644C53.8078 81.4423 53.686 82.2702 53.686 83.1234C53.686 87.5392 56.9771 91.1772 61.1703 91.5536C61.5848 95.8189 65.0954 99.1308 69.3373 99.1308C73.872 99.1308 78.3333 94.7651 78.3333 90.0984V89.7221H78.309Z" fill="#E26972"/>
<path d="M148.086 49.0239C143.844 43.2031 138.554 38.3104 132.678 34.296L130.045 32.5146C126.925 31.9877 123.682 34.1454 123.682 34.1454C120.245 37.2817 120.123 41.4969 120.123 41.4969L122.415 44.6081C122.341 51.1566 135.068 45.3858 135.068 45.3858C139.967 49.7766 137.237 58.3324 137.237 58.3324C128.607 53.2892 122.439 59.1604 122.439 59.1604C118.953 55.0456 115.564 53.5151 112.663 53.2892C112.614 54.0168 112.517 54.7445 112.37 55.447C115.881 58.3826 118.026 62.8487 118.026 67.691C118.026 72.6088 115.808 77.1249 112.2 80.0855C112.37 80.9387 112.444 81.8169 112.444 82.7201C112.444 83.8742 112.273 84.9531 112.005 86.0069C115.515 82.2434 117.539 78.5049 117.539 78.5049C120.708 78.254 123 76.7988 123 76.7988C138.383 82.4943 150.183 74.5658 150.183 74.5658C153.986 75.2181 155.79 74.1141 155.79 74.1141C157.57 64.906 153.059 55.7983 148.086 49.0239Z" fill="#E26972"/>
<path d="M49.1057 85.8563C48.9107 84.9531 48.7888 83.9997 48.7888 83.0463C48.7888 81.9925 48.9107 80.9387 49.1545 79.9351C45.6438 76.9996 43.4985 72.5335 43.4985 67.691C43.4985 62.7734 45.717 58.2571 49.3251 55.2965C49.2032 54.6191 49.1545 53.9416 49.13 53.2391C46.0827 53.3395 42.499 54.7697 38.7933 59.1603C38.7933 59.1603 32.6497 53.3144 23.9951 58.3324C23.9951 58.3324 21.2646 49.7766 26.1648 45.3858C26.1648 45.3858 38.8665 51.1566 38.8177 44.6081L41.1093 41.4969C41.1093 41.4969 40.9875 37.2817 37.55 34.1454C37.55 34.1454 34.3075 31.9877 31.187 32.5146L28.554 34.296C22.6543 38.3104 17.364 43.2281 13.1464 49.0239C8.1974 55.8234 3.68724 64.906 5.46692 74.0891C5.46692 74.0891 7.27099 75.193 11.0741 74.5406C11.0741 74.5406 22.8737 82.444 38.257 76.7737C38.257 76.7737 40.5486 78.2038 43.7179 78.4799C43.6691 78.4547 45.6683 82.143 49.1057 85.8563Z" fill="#E26972"/>
<path d="M100.102 73.4636C105.027 71.8327 108.391 74.2665 109.757 75.5712C111.829 73.589 113.121 70.804 113.121 67.6678C113.121 64.5064 111.78 61.6712 109.659 59.6891C109.147 59.965 108.538 60.0654 107.928 59.9149C107.855 59.8898 103.223 58.7106 99.8098 61.7715C99.3466 62.173 98.7859 62.3738 98.2008 62.3738C97.5182 62.3738 96.8355 62.0726 96.3479 61.5206C95.4703 60.4668 95.5678 58.8862 96.5917 57.983C100.444 54.5456 105.003 54.4954 107.44 54.7713C107.66 53.9936 107.806 53.1657 107.806 52.3125C107.806 47.8967 104.515 44.2586 100.322 43.8823C99.9073 39.6169 96.3967 36.3051 92.1547 36.3051C87.6202 36.3051 83.1589 40.6707 83.1589 45.3375V45.6385C83.7927 45.3876 84.4753 45.1618 85.2311 45.0865C86.7913 44.9109 89.2049 45.212 91.7159 47.4952C92.7154 48.4235 92.813 50.0043 91.9109 51.0329C91.0089 52.0616 89.473 52.162 88.4735 51.2337C87.4983 50.3555 86.5963 49.9541 85.7186 50.0544C84.6704 50.1548 83.6951 50.9326 83.1344 51.5096V90.5751C83.1344 95.2418 86.8157 99.0305 91.3502 99.0305C95.6897 99.0305 99.2248 95.568 99.5417 91.2024C99.4929 90.9515 99.3466 90.274 98.8102 89.6468C97.6888 88.3421 95.5922 88.2669 94.0319 88.4425C92.7154 88.593 91.4965 87.5893 91.3502 86.2094C91.2039 84.8294 92.1792 83.6 93.5199 83.4495C96.9331 83.0731 99.6635 83.7757 101.638 85.5069C103.125 86.7864 103.808 88.3421 104.125 89.4711C106.173 87.9407 107.489 85.4567 107.489 82.6466C107.489 81.6179 107.294 80.6394 106.953 79.7111C106.831 79.6106 106.66 79.5354 106.563 79.3849C106.368 79.1339 104.613 77.1518 101.516 78.1554C100.249 78.582 98.859 77.8544 98.4446 76.5245C98.1277 75.2951 98.8102 73.8901 100.102 73.4636Z" fill="#E26972"/>
<path d="M9.46761 165.724C6.81491 165.795 4.59201 164.985 2.7989 163.292C1.00535 161.585 0.0737457 159.442 0.00411222 156.868C-0.0655213 154.294 0.749189 152.114 2.44824 150.329C4.14685 148.527 6.32251 147.59 8.97519 147.519C10.5702 147.476 12.0494 147.814 13.4129 148.529C14.7931 149.245 15.8785 150.236 16.6687 151.503L14.1898 153.026C13.6962 152.169 12.9893 151.502 12.0691 151.024C11.1652 150.53 10.1593 150.298 9.05117 150.328C7.17076 150.377 5.659 151.013 4.51586 152.231C3.38949 153.449 2.85097 154.968 2.90026 156.791C2.94955 158.612 3.56947 160.101 4.76003 161.257C5.96737 162.414 7.51125 162.965 9.39164 162.914C10.4997 162.885 11.5002 162.607 12.3934 162.082C13.286 161.54 13.9473 160.828 14.377 159.946L16.934 161.308C16.2302 162.614 15.2085 163.671 13.8695 164.476C12.5466 165.265 11.0794 165.681 9.46761 165.724ZM25.1965 165.302C23.3497 165.35 21.7626 164.758 20.4356 163.523C19.1084 162.286 18.4197 160.74 18.3696 158.886C18.3193 157.03 18.9236 155.449 20.1818 154.144C21.4403 152.839 22.9928 152.162 24.8398 152.113C26.7034 152.062 28.2904 152.655 29.6007 153.892C30.9278 155.128 31.6163 156.672 31.6667 158.529C31.7167 160.384 31.1127 161.964 29.8545 163.27C28.6127 164.575 27.0602 165.252 25.1965 165.302ZM22.2994 161.616C23.0752 162.346 24.0171 162.699 25.1253 162.667C26.2334 162.639 27.155 162.237 27.8903 161.465C28.6253 160.692 28.9776 159.737 28.9468 158.602C28.9161 157.466 28.5128 156.531 27.7369 155.798C26.961 155.066 26.0191 154.717 24.911 154.744C23.8029 154.775 22.8811 155.176 22.146 155.948C21.411 156.722 21.0587 157.674 21.0895 158.813C21.1202 159.948 21.5234 160.884 22.2994 161.616ZM36.7334 154.227C37.3795 152.654 38.6514 151.842 40.5485 151.792L40.6279 154.726C39.5851 154.685 38.6853 154.961 37.9284 155.55C37.171 156.122 36.8098 157.052 36.8445 158.34L37.0155 164.66L34.2957 164.73L33.9564 152.193L36.6763 152.12L36.7334 154.227ZM44.3153 159.343C44.5426 160.29 45.0242 161.013 45.7601 161.513C46.4958 161.996 47.3839 162.223 48.4249 162.194C49.8687 162.156 50.9376 161.608 51.6316 160.553L53.908 161.797C52.7151 163.651 50.9012 164.613 48.4668 164.678C46.4185 164.733 44.748 164.159 43.4554 162.956C42.1622 161.735 41.49 160.172 41.4384 158.267C41.3878 156.394 41.9666 154.815 43.1751 153.528C44.3833 152.223 45.9609 151.546 47.9085 151.494C49.7555 151.445 51.2837 152.047 52.4939 153.302C53.7206 154.559 54.3591 156.105 54.4087 157.943C54.4164 158.228 54.393 158.605 54.3385 159.076L44.3153 159.343ZM44.2305 157.138L51.6346 156.94C51.4223 155.924 50.9734 155.167 50.2879 154.667C49.6189 154.166 48.8397 153.927 47.9499 153.952C46.9425 153.978 46.1105 154.277 45.4538 154.846C44.7972 155.417 44.3893 156.179 44.2305 157.138ZM69.3199 164.118C67.6241 164.164 66.1699 163.818 64.957 163.081C63.7609 162.344 62.9098 161.312 62.4036 159.988L64.8574 158.466C65.6159 160.421 67.1032 161.368 69.3194 161.308C70.4108 161.279 71.2194 161.048 71.7453 160.615C72.2876 160.166 72.5495 159.599 72.5309 158.913C72.5115 158.195 72.203 157.659 71.6053 157.306C71.0072 156.937 69.955 156.548 68.4487 156.136C67.6024 155.909 66.916 155.694 66.3897 155.49C65.8633 155.287 65.3012 155.001 64.7032 154.632C64.1215 154.246 63.6801 153.764 63.3789 153.186C63.0775 152.61 62.9164 151.927 62.8951 151.142C62.853 149.588 63.3738 148.343 64.4574 147.412C65.5408 146.462 66.863 145.966 68.4245 145.924C69.8347 145.887 71.078 146.197 72.1544 146.853C73.2305 147.511 74.0703 148.433 74.6738 149.622L72.269 151.091C71.4859 149.473 70.2297 148.686 68.5004 148.733C67.6609 148.756 66.9948 148.975 66.5019 149.39C66.0087 149.788 65.7712 150.32 65.7892 150.989C65.8069 151.642 66.0728 152.153 66.5868 152.523C67.1172 152.877 68.0596 153.245 69.4139 153.627C70.0915 153.826 70.5829 153.981 70.8882 154.089C71.2099 154.18 71.6511 154.337 72.2114 154.556C72.7886 154.775 73.2231 154.997 73.5148 155.223C73.8065 155.45 74.1165 155.734 74.445 156.076C74.7905 156.418 75.0364 156.813 75.1829 157.262C75.3294 157.708 75.4104 158.217 75.4256 158.786C75.4686 160.374 74.9236 161.651 73.7904 162.619C72.6736 163.569 71.1834 164.067 69.3199 164.118ZM84.2642 153.455L81.1413 153.539L81.3042 159.557C81.3182 160.075 81.446 160.448 81.6873 160.675C81.9282 160.887 82.2758 161.003 82.73 161.024C83.2006 161.027 83.7796 161.004 84.4672 160.952L84.5329 163.385C82.4577 163.692 80.9588 163.555 80.0359 162.978C79.1126 162.383 78.6286 161.268 78.5845 159.63L78.4217 153.612L76.1047 153.673L76.0342 151.066L78.3511 151.004L78.2778 148.295L80.976 147.42L81.0709 150.93L84.1937 150.847L84.2642 153.455ZM89.5602 152.811C90.2066 151.237 91.4784 150.426 93.3756 150.375L93.455 153.309C92.4122 153.27 91.5124 153.545 90.7554 154.133C89.9981 154.706 89.6368 155.636 89.6716 156.923L89.8424 163.241L87.1227 163.315L86.7836 150.778L89.5033 150.705L89.5602 152.811ZM97.1425 157.928C97.3696 158.875 97.8514 159.597 98.5873 160.097C99.3227 160.579 100.211 160.806 101.252 160.778C102.696 160.739 103.765 160.192 104.458 159.136L106.735 160.379C105.542 162.236 103.728 163.196 101.294 163.261C99.2456 163.316 97.5751 162.74 96.2824 161.538C94.9894 160.319 94.317 158.756 94.2655 156.85C94.2149 154.979 94.7938 153.398 96.0023 152.111C97.2103 150.808 98.7881 150.129 100.736 150.077C102.582 150.028 104.111 150.63 105.321 151.887C106.548 153.142 107.186 154.689 107.236 156.528C107.243 156.812 107.22 157.189 107.166 157.659L97.1425 157.928ZM97.0575 155.72L104.462 155.523C104.249 154.508 103.8 153.75 103.115 153.25C102.446 152.749 101.667 152.51 100.777 152.535C99.7695 152.561 98.9375 152.86 98.2809 153.43C97.6243 153.999 97.2165 154.764 97.0575 155.72ZM116.073 149.666C117.517 149.627 118.697 150.055 119.611 150.951C120.526 151.846 121.005 153.096 121.048 154.702L121.257 162.4L118.537 162.473L118.336 155.049C118.311 154.114 118.039 153.402 117.522 152.914C117.005 152.426 116.31 152.193 115.437 152.217C114.48 152.243 113.716 152.564 113.144 153.182C112.572 153.783 112.303 154.694 112.336 155.914L112.518 162.635L109.798 162.707L109.459 150.17L112.179 150.097L112.222 151.702C113.01 150.392 114.294 149.713 116.073 149.666ZM133.87 149.515L136.538 149.443L136.863 161.404C136.913 163.309 136.324 164.789 135.092 165.843C133.861 166.896 132.347 167.447 130.549 167.496C127.645 167.573 125.629 166.615 124.499 164.621L126.805 163.204C127.494 164.473 128.738 165.085 130.534 165.035C131.709 165.005 132.616 164.671 133.253 164.035C133.909 163.415 134.222 162.562 134.193 161.476L134.151 159.946C133.167 161.428 131.726 162.194 129.828 162.245C128.048 162.293 126.529 161.707 125.27 160.485C124.01 159.248 123.355 157.734 123.307 155.946C123.259 154.157 123.83 152.62 125.022 151.332C126.213 150.029 127.698 149.354 129.478 149.306C131.376 149.255 132.855 149.943 133.919 151.37L133.87 149.515ZM127.237 158.65C128.029 159.382 128.996 159.733 130.137 159.703C131.28 159.671 132.218 159.27 132.953 158.498C133.705 157.724 134.066 156.779 134.036 155.659C134.005 154.538 133.593 153.613 132.801 152.881C132.025 152.149 131.067 151.798 129.924 151.828C128.784 151.859 127.837 152.261 127.085 153.034C126.349 153.806 125.997 154.753 126.027 155.873C126.057 156.993 126.46 157.918 127.237 158.65ZM146.805 151.777L143.683 151.861L143.845 157.878C143.86 158.398 143.987 158.77 144.229 158.999C144.47 159.209 144.818 159.325 145.271 159.347C145.742 159.35 146.321 159.326 147.008 159.275L147.074 161.707C144.999 162.014 143.5 161.878 142.578 161.301C141.655 160.706 141.17 159.59 141.126 157.951L140.964 151.934L138.646 151.996L138.575 149.388L140.893 149.327L140.819 146.618L143.518 145.743L143.612 149.254L146.736 149.169L146.805 151.777ZM155.816 148.6C157.26 148.561 158.44 148.989 159.355 149.885C160.269 150.78 160.748 152.03 160.791 153.635L161 161.333L158.281 161.406L158.079 153.985C158.054 153.048 157.783 152.337 157.265 151.848C156.748 151.36 156.052 151.127 155.18 151.151C154.223 151.177 153.458 151.499 152.888 152.116C152.316 152.717 152.046 153.627 152.079 154.848L152.262 161.569L149.541 161.642L149.067 144.089L151.786 144.016L151.965 150.636C152.754 149.326 154.036 148.647 155.816 148.6Z" fill="#E26972"/>
</g>
<defs>
<clipPath id="clip0_36_2">
<rect width="161" height="167" fill="white" transform="translate(0 0.5)"/>
</clipPath>
</defs>
</svg>
