<svg width="416" height="417" viewBox="0 0 416 417" fill="none" xmlns="http://www.w3.org/2000/svg">
<path d="M415.609 184.454C410.853 143.492 394.057 104.86 367.346 73.4433C340.634 42.0266 305.206 19.2364 265.542 7.95456C225.878 -3.32726 183.759 -2.59394 144.512 10.0618C105.264 22.7175 70.651 46.7272 45.0492 79.0548C19.4473 111.382 4.00662 150.576 0.679665 191.679C-2.64729 232.782 6.28892 273.948 26.3583 309.972C46.4276 345.997 76.7287 375.261 113.43 394.064C150.131 412.867 191.583 420.365 232.546 415.609L231.391 405.668C192.395 410.196 152.932 403.058 117.993 385.157C83.0534 367.256 54.2067 339.397 35.1006 305.102C15.9946 270.807 7.48727 231.616 10.6545 192.486C13.8218 153.356 28.5214 116.044 52.8944 85.2678C77.2674 54.4919 110.219 31.6346 147.583 19.5863C184.946 7.53806 225.044 6.83993 262.804 17.5803C300.564 28.3206 334.292 50.0169 359.721 79.9257C385.151 109.835 401.141 146.612 405.668 185.609L415.609 184.454Z" fill="#E26972"/>
</svg>
