<svg width="23" height="22" viewBox="0 0 23 22" fill="none" xmlns="http://www.w3.org/2000/svg">
<path fill-rule="evenodd" clip-rule="evenodd" d="M22.4999 21.5701H18.1879V14.0251C18.1879 11.9554 17.2748 10.8006 15.6374 10.8006C13.8554 10.8006 12.7979 12.0039 12.7979 14.0251V21.5701H8.48591V7.55609H12.7979V9.13204C12.7979 9.13204 14.1508 6.75812 17.1994 6.75812C20.249 6.75812 22.4999 8.61911 22.4999 12.4697V21.5701ZM3.57239 5.31482C2.11817 5.31482 0.939911 4.12693 0.939911 2.66193C0.939911 1.19801 2.11817 0.0100937 3.57239 0.0100937C5.02553 0.0100937 6.20378 1.19801 6.20378 2.66193C6.20486 4.12693 5.02553 5.31482 3.57239 5.31482ZM0.939911 21.5701H6.32991V7.55609H0.939911V21.5701Z" fill="#0A78B5"/>
</svg>
