<svg width="136" height="159" viewBox="0 0 136 159" fill="none" xmlns="http://www.w3.org/2000/svg">
<path d="M125.564 94.6978C125.574 94.9669 125.478 95.2292 125.295 95.4271C125.112 95.625 124.859 95.7424 124.59 95.7534L12.961 100.237C12.6918 100.248 12.4294 100.151 12.2314 99.9684C12.0335 99.7858 11.9162 99.5319 11.9054 99.2628C11.8946 98.9936 11.9911 98.7312 12.1738 98.5333C12.3565 98.3353 12.6103 98.218 12.8794 98.2072L124.508 93.7238C124.777 93.7131 125.04 93.8097 125.237 93.9924C125.435 94.175 125.553 94.4287 125.564 94.6978ZM10.2709 33.2596L121.9 28.7761C122.169 28.7653 122.423 28.648 122.605 28.4501C122.788 28.2521 122.884 27.9897 122.874 27.7206C122.863 27.4514 122.746 27.1976 122.548 27.0149C122.35 26.8322 122.087 26.7357 121.818 26.7465L10.1894 31.23C9.92022 31.2408 9.66639 31.3581 9.48372 31.556C9.30105 31.754 9.2045 32.0164 9.21531 32.2855C9.22612 32.5547 9.3434 32.8085 9.54136 32.9912C9.73932 33.1739 10.0017 33.2704 10.2709 33.2596ZM43.3519 21.7665L51.4704 21.4404L51.6334 25.4996L80.048 24.3584L79.8849 20.2992L88.0034 19.9731C89.6183 19.9082 91.1412 19.2045 92.2372 18.0168C93.3332 16.8291 93.9125 15.2546 93.8477 13.6397C93.7828 12.0248 93.0791 10.5019 91.8914 9.40587C90.7036 8.30986 89.1292 7.73056 87.5143 7.79542L42.8628 9.58881C41.2479 9.65367 39.725 10.3574 38.629 11.5451C37.533 12.7329 36.9537 14.3073 37.0185 15.9222C37.0834 17.5371 37.7871 19.06 38.9748 20.156C40.1626 21.2521 41.737 21.8313 43.3519 21.7665ZM75.7609 120.076C75.8105 121.193 75.5517 122.303 75.0129 123.283C74.4741 124.263 73.676 125.075 72.7061 125.632C71.7362 126.189 70.6318 126.467 69.514 126.438C68.3961 126.409 67.3078 126.073 66.3682 125.466C65.4287 124.86 64.6742 124.007 64.1873 123C63.7004 121.993 63.4999 120.872 63.6078 119.759C63.7157 118.646 64.1277 117.584 64.7989 116.689C65.47 115.795 66.3744 115.102 67.4129 114.688L66.9087 102.136L70.968 101.973L71.4721 114.524C72.6726 114.894 73.7294 115.626 74.4973 116.62C75.2652 117.614 75.7066 118.821 75.7609 120.076ZM71.7016 120.239C71.6855 119.838 71.5507 119.45 71.3143 119.125C71.0779 118.801 70.7504 118.553 70.3734 118.415C69.9964 118.276 69.5867 118.252 69.1961 118.346C68.8055 118.44 68.4517 118.648 68.1792 118.943C67.9068 119.239 67.728 119.608 67.6655 120.005C67.603 120.402 67.6596 120.808 67.8281 121.173C67.9966 121.538 68.2695 121.844 68.6122 122.054C68.9549 122.263 69.3521 122.367 69.7535 122.35C70.2916 122.328 70.7988 122.093 71.164 121.698C71.5292 121.302 71.7225 120.777 71.7016 120.239ZM93.2854 50.2543C93.6868 50.2381 94.0744 50.1033 94.3992 49.8669C94.7241 49.6305 94.9715 49.3031 95.1102 48.926C95.2489 48.549 95.2727 48.1393 95.1786 47.7487C95.0845 47.3582 94.8766 47.0043 94.5814 46.7319C94.2861 46.4594 93.9167 46.2806 93.5199 46.2181C93.123 46.1556 92.7166 46.2122 92.3519 46.3807C91.9872 46.5492 91.6806 46.8221 91.471 47.1648C91.2614 47.5076 91.1581 47.9047 91.1743 48.3062C91.1962 48.8443 91.4309 49.3518 91.8267 49.717C92.2226 50.0823 92.7472 50.2755 93.2854 50.2543ZM86.1452 74.9357C86.5466 74.9196 86.9342 74.7848 87.259 74.5484C87.5838 74.3119 87.8312 73.9845 87.9699 73.6075C88.1087 73.2304 88.1325 72.8207 88.0383 72.4302C87.9442 72.0396 87.7364 71.6857 87.4411 71.4133C87.1459 71.1408 86.7765 70.9621 86.3796 70.8996C85.9828 70.8371 85.5763 70.8937 85.2116 71.0622C84.8469 71.2307 84.5404 71.5035 84.3308 71.8463C84.1212 72.189 84.0179 72.5862 84.034 72.9876C84.056 73.5258 84.2907 74.0332 84.6865 74.3985C85.0823 74.7637 85.607 74.957 86.1452 74.9357ZM73.4784 63.2471C73.8798 63.231 74.2674 63.0962 74.5922 62.8598C74.917 62.6234 75.1644 62.2959 75.3032 61.9189C75.4419 61.5419 75.4657 61.1322 75.3716 60.7416C75.2774 60.351 75.0696 59.9972 74.7744 59.7247C74.4791 59.4523 74.1097 59.2735 73.7129 59.211C73.316 59.1485 72.9095 59.2051 72.5448 59.3736C72.1801 59.5421 71.8736 59.815 71.664 60.1577C71.4544 60.5004 71.3511 60.8976 71.3672 61.299C71.3892 61.8372 71.6239 62.3446 72.0197 62.7099C72.4156 63.0752 72.9402 63.2684 73.4784 63.2471ZM13.7312 94.1072L11.4487 37.2781L121.048 32.8761L123.33 89.7053L13.7312 94.1072ZM31.5901 83.2255C31.6567 84.8398 32.361 86.3617 33.5483 87.4573C34.7357 88.553 36.3091 89.1329 37.9235 89.0698L102.871 86.4612C103.409 86.4396 103.917 86.205 104.282 85.8091C104.648 85.4132 104.841 84.8884 104.819 84.3501C104.798 83.8118 104.563 83.3042 104.167 82.9388C103.771 82.5735 103.246 82.3804 102.708 82.402L37.7605 85.0106C37.2223 85.0318 36.6977 84.8386 36.3019 84.4733C35.906 84.1081 35.6713 83.6006 35.6494 83.0625L35.4048 76.9736L80.4304 75.1652C80.9636 76.5001 81.9516 77.6036 83.2197 78.2805C84.4878 78.9574 85.9543 79.1643 87.3602 78.8645C88.766 78.5647 90.0206 77.7776 90.9023 76.6423C91.7839 75.5069 92.2358 74.0964 92.178 72.6601C92.1203 71.2238 91.5567 69.8542 90.5868 68.7933C89.6169 67.7324 88.3031 67.0485 86.8778 66.8625C85.4524 66.6765 84.0071 67.0004 82.7975 67.7769C81.5878 68.5534 80.6916 69.7326 80.2673 71.106L35.2418 72.9144L34.9157 64.796L67.7636 63.4766C68.2968 64.8116 69.2848 65.915 70.5529 66.5919C71.821 67.2689 73.2875 67.4757 74.6934 67.1759C76.0992 66.8762 77.3538 66.089 78.2355 64.9537C79.1171 63.8183 79.569 62.4079 79.5113 60.9716C79.4535 59.5353 78.8899 58.1656 77.92 57.1047C76.9501 56.0438 75.6363 55.3599 74.211 55.1739C72.7856 54.9879 71.3404 55.3118 70.1307 56.0883C68.921 56.8649 68.0248 58.044 67.6005 59.4174L34.7527 60.7367L34.4266 52.6183L87.5707 50.4838C88.1039 51.8187 89.0918 52.9221 90.3599 53.5991C91.628 54.276 93.0946 54.4829 94.5004 54.1831C95.9063 53.8833 97.1609 53.0962 98.0425 51.9608C98.9241 50.8255 99.376 49.415 99.3183 47.9787C99.2606 46.5424 98.6969 45.1728 97.727 44.1118C96.7571 43.0509 95.4434 42.367 94.018 42.181C92.5926 41.9951 91.1474 42.3189 89.9377 43.0955C88.7281 43.872 87.8319 45.0512 87.4075 46.4246L34.2636 48.5591L34.019 42.4702C33.9974 41.9319 33.7628 41.4243 33.3669 41.0589C32.971 40.6936 32.4462 40.5005 31.9079 40.5221C31.3696 40.5437 30.8619 40.7783 30.4966 41.1742C30.1313 41.5701 29.9382 42.095 29.9598 42.6332L31.5901 83.2255Z" fill="#323E4C"/>
<path d="M12.2475 158.208C10.2169 158.272 8.51523 157.553 7.14259 156.052C5.7696 154.537 5.05645 152.637 5.00315 150.354C4.94984 148.071 5.57351 146.139 6.87415 144.555C8.17445 142.957 9.83994 142.126 11.8706 142.063C13.0916 142.025 14.2239 142.324 15.2677 142.959C16.3244 143.594 17.1551 144.473 17.7602 145.596L15.8624 146.946C15.4845 146.187 14.9434 145.595 14.239 145.172C13.5471 144.733 12.777 144.527 11.9288 144.554C10.4893 144.599 9.33202 145.161 8.45694 146.242C7.59469 147.321 7.18245 148.67 7.22018 150.287C7.25791 151.902 7.73246 153.222 8.64385 154.247C9.56808 155.273 10.7499 155.762 12.1894 155.717C13.0377 155.691 13.8036 155.445 14.4872 154.978C15.1705 154.498 15.6767 153.866 16.0057 153.084L17.9631 154.292C17.4243 155.45 16.6423 156.387 15.6172 157.102C14.6046 157.801 13.4814 158.17 12.2475 158.208ZM21.5021 144.39C21.2521 144.694 20.947 144.852 20.5872 144.863C20.2272 144.875 19.909 144.736 19.6321 144.448C19.3677 144.145 19.2308 143.785 19.2211 143.37C19.2114 142.955 19.3316 142.595 19.5818 142.291C19.8315 141.972 20.1428 141.806 20.5155 141.795C20.8882 141.783 21.2067 141.929 21.471 142.232C21.735 142.521 21.8718 142.873 21.8815 143.288C21.8913 143.703 21.7647 144.07 21.5021 144.39ZM19.8446 157.683L19.5851 146.563L21.6671 146.498L21.9267 157.618L19.8446 157.683ZM26.2103 148.228C26.7051 146.832 27.6786 146.112 29.1309 146.067L29.1916 148.669C28.3934 148.633 27.7046 148.879 27.1251 149.4C26.5454 149.907 26.2688 150.733 26.2955 151.875L26.4263 157.478L24.3442 157.543L24.0846 146.424L26.1667 146.359L26.2103 148.228ZM35.0382 157.499C33.5859 157.545 32.3582 157.019 31.3551 155.922C30.3649 154.826 29.8505 153.455 29.8121 151.81C29.7733 150.148 30.2229 148.748 31.1608 147.606C32.1114 146.449 33.3127 145.847 34.765 145.802C35.7033 145.774 36.564 146.006 37.3473 146.501C38.1306 146.996 38.7252 147.675 39.1312 148.538L37.3662 149.795C37.1353 149.268 36.7915 148.863 36.3347 148.58C35.8905 148.283 35.3792 148.143 34.8008 148.16C33.9525 148.187 33.2471 148.543 32.6842 149.228C32.1343 149.913 31.871 150.752 31.8941 151.745C31.9174 152.739 32.2195 153.559 32.8006 154.209C33.3946 154.858 34.1157 155.17 34.9639 155.143C35.5293 155.126 36.0334 154.954 36.476 154.629C36.9314 154.303 37.2688 153.877 37.4879 153.352L39.3083 154.474C38.9179 155.377 38.343 156.099 37.5841 156.643C36.825 157.185 35.9764 157.471 35.0382 157.499ZM47.1678 145.706L49.2498 145.641L49.5094 156.761L47.4274 156.826L47.3942 155.402C46.791 156.564 45.8083 157.165 44.4459 157.208C43.3406 157.242 42.4379 156.862 41.7377 156.068C41.0375 155.274 40.6707 154.165 40.6375 152.742L40.4781 145.915L42.5602 145.85L42.7139 152.433C42.7333 153.263 42.9409 153.894 43.3368 154.327C43.7328 154.76 44.265 154.965 44.9333 154.944C45.6659 154.922 46.251 154.644 46.6887 154.111C47.1261 153.563 47.3322 152.749 47.3069 151.666L47.1678 145.706ZM53.6015 143.393C53.3514 143.697 53.0465 143.855 52.6865 143.866C52.3267 143.877 52.0084 143.739 51.7315 143.451C51.4672 143.147 51.3303 142.788 51.3205 142.373C51.3109 141.958 51.4311 141.598 51.6812 141.294C51.931 140.974 52.2422 140.809 52.615 140.797C52.9876 140.786 53.3061 140.932 53.5705 141.235C53.8344 141.524 53.9712 141.875 53.981 142.29C53.9906 142.706 53.8642 143.073 53.6015 143.393ZM51.9441 156.685L51.6845 145.567L53.7666 145.502L54.0262 156.621L51.9441 156.685ZM61.6167 147.572L59.2262 147.647L59.3508 152.984C59.3616 153.443 59.4593 153.775 59.6441 153.976C59.8286 154.164 60.0945 154.266 60.4422 154.285C60.8025 154.289 61.2458 154.268 61.772 154.221L61.8223 156.379C60.2338 156.651 59.0863 156.53 58.3799 156.018C57.673 155.491 57.3027 154.502 57.2687 153.049L57.1441 147.712L55.3705 147.767L55.3165 145.454L57.0901 145.399L57.034 142.997L59.0995 142.221L59.1722 145.334L61.5627 145.26L61.6167 147.572ZM73.7976 147.195L71.407 147.268L71.5316 152.605C71.5424 153.064 71.6401 153.396 71.825 153.597C72.0093 153.784 72.2754 153.887 72.6231 153.907C72.9833 153.91 73.4265 153.889 73.9529 153.844L74.0032 156C72.4147 156.272 71.2672 156.152 70.5607 155.639C69.8539 155.112 69.4835 154.123 69.4496 152.67L69.325 147.333L67.5514 147.388L67.4974 145.075L69.271 145.02L69.2149 142.618L71.2804 141.842L71.3531 144.955L73.7436 144.881L73.7976 147.195ZM77.8517 146.622C78.3465 145.227 79.32 144.508 80.7723 144.462L80.8332 147.065C80.0349 147.03 79.3461 147.273 78.7666 147.796C78.1869 148.304 77.9103 149.128 77.9369 150.27L78.0677 155.874L75.9858 155.938L75.7261 144.82L77.8081 144.755L77.8517 146.622ZM89.4979 144.392L91.58 144.327L91.8396 155.446L89.7575 155.511L89.7201 153.91C88.9655 155.194 87.8557 155.859 86.3905 155.904C85.0667 155.946 83.9225 155.418 82.9581 154.32C81.9931 153.208 81.4917 151.835 81.4536 150.205C81.4152 148.56 81.8519 147.159 82.7638 146.002C83.6757 144.847 84.7936 144.248 86.1174 144.207C87.5825 144.162 88.7217 144.75 89.5348 145.971L89.4979 144.392ZM84.4629 152.671C85.0568 153.319 85.7908 153.631 86.6647 153.604C87.5387 153.577 88.257 153.221 88.8199 152.536C89.3823 151.835 89.6516 150.974 89.6277 149.951C89.6038 148.928 89.2949 148.092 88.7009 147.443C88.1067 146.779 87.3725 146.46 86.4986 146.487C85.6247 146.515 84.9064 146.879 84.344 147.578C83.7813 148.263 83.5118 149.117 83.5357 150.14C83.5595 151.163 83.8686 152.007 84.4629 152.671ZM95.9238 142.078C95.6737 142.382 95.3688 142.54 95.0088 142.551C94.649 142.563 94.3306 142.424 94.0538 142.136C93.7895 141.833 93.6526 141.473 93.6428 141.058C93.6331 140.643 93.7534 140.283 94.0034 139.979C94.2533 139.66 94.5645 139.494 94.9372 139.482C95.31 139.471 95.6285 139.617 95.8928 139.92C96.1568 140.209 96.2936 140.56 96.3033 140.976C96.3129 141.391 96.1865 141.758 95.9238 142.078ZM94.2664 155.37L94.0067 144.252L96.0889 144.187L96.3485 155.307L94.2664 155.37ZM103.57 143.665C104.675 143.631 105.578 144.011 106.278 144.805C106.978 145.599 107.345 146.708 107.378 148.132L107.538 154.958L105.456 155.023L105.302 148.44C105.283 147.61 105.075 146.979 104.679 146.546C104.283 146.114 103.751 145.908 103.082 145.928C102.35 145.95 101.765 146.236 101.327 146.783C100.89 147.317 100.684 148.125 100.709 149.207L100.848 155.166L98.766 155.23L98.5063 144.112L100.588 144.047L100.622 145.471C101.225 144.309 102.208 143.707 103.57 143.665ZM111.437 141.596C111.187 141.9 110.882 142.058 110.522 142.069C110.162 142.081 109.844 141.942 109.567 141.654C109.303 141.351 109.166 140.991 109.156 140.576C109.146 140.161 109.267 139.801 109.517 139.497C109.766 139.178 110.078 139.012 110.45 139.001C110.823 138.989 111.142 139.135 111.406 139.438C111.67 139.727 111.807 140.079 111.816 140.494C111.826 140.909 111.7 141.276 111.437 141.596ZM109.78 154.888L109.52 143.77L111.602 143.705L111.862 154.825L109.78 154.888ZM119.083 143.183C120.188 143.149 121.091 143.529 121.791 144.323C122.491 145.117 122.858 146.226 122.891 147.65L123.051 154.476L120.969 154.541L120.815 147.958C120.796 147.128 120.588 146.497 120.192 146.064C119.796 145.632 119.264 145.426 118.596 145.446C117.863 145.468 117.278 145.754 116.841 146.301C116.403 146.835 116.197 147.643 116.222 148.725L116.361 154.684L114.279 154.748L114.02 143.63L116.102 143.565L116.135 144.988C116.738 143.827 117.721 143.226 119.083 143.183ZM132.706 143.049L134.75 142.986L134.998 153.593C135.037 155.284 134.585 156.596 133.642 157.53C132.7 158.465 131.54 158.952 130.166 158.996C127.942 159.065 126.398 158.215 125.533 156.447L127.298 155.19C127.826 156.316 128.778 156.858 130.152 156.814C131.053 156.788 131.747 156.49 132.235 155.927C132.736 155.377 132.976 154.62 132.954 153.656L132.922 152.3C132.168 153.614 131.065 154.295 129.612 154.34C128.25 154.382 127.087 153.862 126.123 152.778C125.159 151.68 124.658 150.339 124.62 148.753C124.583 147.166 125.021 145.802 125.933 144.662C126.845 143.506 127.982 142.907 129.345 142.864C130.797 142.819 131.93 143.43 132.745 144.695L132.706 143.049ZM127.628 151.152C128.235 151.8 128.976 152.112 129.849 152.085C130.723 152.057 131.441 151.702 132.004 151.015C132.58 150.33 132.856 149.49 132.833 148.498C132.81 147.505 132.496 146.683 131.888 146.035C131.295 145.385 130.56 145.074 129.687 145.102C128.812 145.128 128.087 145.485 127.512 146.17C126.949 146.856 126.68 147.695 126.702 148.688C126.725 149.682 127.034 150.502 127.628 151.152Z" fill="#323E4C"/>
</svg>
