<svg width="134" height="137" viewBox="0 0 134 137" fill="none" xmlns="http://www.w3.org/2000/svg">
<g clip-path="url(#clip0_1_34)">
<path d="M67.2163 0C66.0317 0 65.0625 0.969233 65.0625 2.15385V10.7693C65.0625 11.9539 66.0317 12.9231 67.2163 12.9231C68.401 12.9231 69.3702 11.9539 69.3702 10.7693V2.15385C69.3702 0.969233 68.401 0 67.2163 0Z" fill="#E26972"/>
<path d="M67.2163 99.0762C66.0317 99.0762 65.0625 100.045 65.0625 101.23V109.845C65.0625 111.03 66.0317 111.999 67.2163 111.999C68.401 111.999 69.3702 111.03 69.3702 109.845V101.23C69.3702 100.045 68.401 99.0762 67.2163 99.0762Z" fill="#E26972"/>
<path d="M49.7068 14.2384C50.0299 15.1215 50.8484 15.66 51.7315 15.66C51.9684 15.66 52.2268 15.6169 52.4638 15.5307C53.5838 15.1215 54.1653 13.8938 53.7561 12.7738L50.8053 4.67533C50.3961 3.55533 49.1684 2.97379 48.0484 3.38302C46.9284 3.79225 46.3468 5.01995 46.7561 6.13995L49.7068 14.2384Z" fill="#E26972"/>
<path d="M84.6647 97.7652C84.2554 96.6452 83.0278 96.0636 81.9078 96.4729C80.7877 96.8821 80.2062 98.1098 80.6154 99.2298L83.5662 107.328C83.8893 108.211 84.7078 108.75 85.5908 108.75C85.8278 108.75 86.0862 108.707 86.3231 108.621C87.4431 108.211 88.0247 106.984 87.6155 105.864L84.6647 97.7652Z" fill="#E26972"/>
<path d="M36.4742 22.7364C36.905 23.2533 37.5081 23.5118 38.1327 23.5118C38.6281 23.5118 39.1019 23.3395 39.5111 23.0164C40.4158 22.2626 40.545 20.8841 39.7696 19.9795L34.2342 13.3887C33.4804 12.4841 32.1234 12.3548 31.1973 13.1302C30.2927 13.8841 30.1634 15.2625 30.9388 16.1672L36.4742 22.7364Z" fill="#E26972"/>
<path d="M97.8983 89.2481C97.1444 88.3434 95.7875 88.2142 94.8613 88.9896C93.9567 89.7435 93.8275 91.1219 94.6029 92.0265L100.138 98.6173C100.569 99.1342 101.172 99.3927 101.797 99.3927C102.292 99.3927 102.766 99.2204 103.175 98.8973C104.08 98.1435 104.209 96.765 103.434 95.8604L97.8983 89.2481Z" fill="#E26972"/>
<path d="M81.9078 15.5307C82.1447 15.6169 82.4031 15.66 82.6401 15.66C83.5231 15.66 84.3416 15.1215 84.6647 14.2384L87.6155 6.13995C88.0247 5.01995 87.4431 3.79225 86.3231 3.38302C85.2031 2.97379 83.9754 3.55533 83.5662 4.67533L80.6154 12.7738C80.2062 13.8723 80.7877 15.1215 81.9078 15.5307Z" fill="#E26972"/>
<path d="M52.4638 96.4729C51.3438 96.0636 50.1161 96.6452 49.7068 97.7652L46.7561 105.864C46.3468 106.984 46.9284 108.211 48.0484 108.621C48.2853 108.707 48.5438 108.75 48.7807 108.75C49.6638 108.75 50.4822 108.211 50.8053 107.328L53.7561 99.2298C54.1653 98.1313 53.5838 96.8821 52.4638 96.4729Z" fill="#E26972"/>
<path d="M96.2398 23.503C96.8644 23.503 97.4675 23.2445 97.8983 22.7276L103.434 16.1368C104.209 15.2322 104.08 13.8753 103.175 13.0999C102.271 12.346 100.914 12.4537 100.138 13.3583L94.6029 19.9491C93.8275 20.8537 93.9567 22.2107 94.8613 22.986C95.249 23.3522 95.7444 23.503 96.2398 23.503Z" fill="#E26972"/>
<path d="M36.4653 89.2644L30.9299 95.8552C30.1761 96.7598 30.2838 98.1167 31.1884 98.8921C31.5976 99.2367 32.093 99.3875 32.5669 99.3875C33.1915 99.3875 33.7946 99.129 34.2253 98.6121L39.7607 92.0213C40.5146 91.1167 40.4069 89.7598 39.5023 88.9844C38.5977 88.2521 37.2407 88.3598 36.4653 89.2644Z" fill="#E26972"/>
<path d="M65.1446 76.5918C64.5846 76.8072 63.9815 77.001 63.3138 77.0656C63.12 77.0872 62.883 77.1087 62.6677 77.1087C61.3107 77.1087 59.48 76.6779 57.6061 74.9979C56.723 74.201 56.6369 72.8441 57.4338 71.961C58.2307 71.0779 59.5877 70.9918 60.4707 71.7887C61.3107 72.5426 62.1077 72.8656 62.883 72.801C63.8092 72.7149 64.6492 72.0687 65.1661 71.5733V37.9948C65.1661 33.9886 61.9138 30.7363 57.9077 30.7363C54.0738 30.7363 50.9507 33.7086 50.6707 37.4563C50.7138 37.6933 50.8861 38.4902 51.6184 39.0933C52.4369 39.761 53.7938 40.0194 55.5384 39.8256C56.7015 39.6748 57.7784 40.5579 57.9077 41.7425C58.0369 42.9271 57.1753 43.9825 55.9907 44.1117C55.4738 44.1548 54.9784 44.1979 54.483 44.1979C52.1569 44.1979 50.2615 43.5733 48.7969 42.3456C47.483 41.2471 46.8799 39.9117 46.5999 38.9425C44.7907 40.2563 43.6061 42.3887 43.6061 44.801C43.6061 45.684 43.7784 46.5025 44.0584 47.2994C44.1876 47.3856 44.3169 47.4717 44.4246 47.601C44.5969 47.8164 46.1692 49.5179 48.883 48.6564C50.003 48.2902 51.2307 48.9148 51.5969 50.0564C51.963 51.1979 51.3384 52.4041 50.1969 52.7702C49.163 53.0933 48.2153 53.2441 47.3538 53.2441C44.5322 53.2441 42.5938 51.8225 41.6676 50.961C39.8369 52.6625 38.6953 55.0533 38.6953 57.7456C38.6953 60.4595 39.8799 62.8933 41.7538 64.5949C42.2061 64.3579 42.7445 64.2718 43.283 64.401C43.3261 64.4225 47.4399 65.4349 50.4553 62.8072C51.3599 62.0318 52.7169 62.1179 53.4923 63.0225C54.2676 63.9272 54.1815 65.2841 53.2769 66.0595C50.6061 68.3856 47.5261 68.9026 45.2861 68.9026C44.683 68.9026 44.1661 68.8595 43.7138 68.8164C43.4984 69.4841 43.3907 70.1949 43.3907 70.9272C43.3907 74.7179 46.2984 77.841 50.003 78.1641C50.3692 81.8257 53.4707 84.6687 57.2184 84.6687C61.2246 84.6687 65.1661 80.921 65.1661 76.9149V76.5918H65.1446Z" fill="#E26972"/>
<path d="M126.83 41.6614C123.082 36.6645 118.409 32.4645 113.218 29.0183L110.892 27.4891C108.135 27.0368 105.27 28.8891 105.27 28.8891C102.233 31.5814 102.125 35.1999 102.125 35.1999L104.15 37.8707C104.085 43.4922 115.329 38.5384 115.329 38.5384C119.658 42.3076 117.245 49.6522 117.245 49.6522C109.621 45.323 104.172 50.363 104.172 50.363C101.092 46.8307 98.0977 45.5168 95.5347 45.323C95.4916 45.9476 95.4054 46.5722 95.2762 47.1753C98.3777 49.6953 100.273 53.5292 100.273 57.6861C100.273 61.9076 98.3131 65.7846 95.1254 68.3261C95.2762 69.0584 95.3408 69.8123 95.3408 70.5877C95.3408 71.5784 95.19 72.5046 94.9531 73.4092C98.0547 70.1784 99.8424 66.9692 99.8424 66.9692C102.642 66.7538 104.667 65.5046 104.667 65.5046C118.258 70.3938 128.682 63.5876 128.682 63.5876C132.042 64.1476 133.636 63.1999 133.636 63.1999C135.209 55.2953 131.224 47.4768 126.83 41.6614Z" fill="#E26972"/>
<path d="M39.3492 73.28C39.1769 72.5046 39.0692 71.6861 39.0692 70.8677C39.0692 69.963 39.1769 69.0584 39.3923 68.1969C36.2907 65.6769 34.3953 61.843 34.3953 57.6861C34.3953 53.4645 36.3553 49.5876 39.543 47.0461C39.4353 46.4645 39.3923 45.883 39.3707 45.2799C36.6784 45.3661 33.5123 46.5938 30.2384 50.363C30.2384 50.363 24.8107 45.3445 17.1645 49.6522C17.1645 49.6522 14.7522 42.3076 19.0815 38.5384C19.0815 38.5384 30.303 43.4922 30.2599 37.8707L32.2846 35.1999C32.2846 35.1999 32.1769 31.5814 29.1399 28.8891C29.1399 28.8891 26.2753 27.0368 23.5184 27.4891L21.1922 29.0183C15.9799 32.4645 11.3061 36.6861 7.5799 41.6614C3.20759 47.4984 -0.777032 55.2953 0.795278 63.1784C0.795278 63.1784 2.38913 64.1261 5.74913 63.5661C5.74913 63.5661 16.1738 70.3507 29.7646 65.483C29.7646 65.483 31.7892 66.7107 34.5892 66.9477C34.5461 66.9261 36.3123 70.0923 39.3492 73.28Z" fill="#E26972"/>
<path d="M84.4439 62.6349C88.7947 61.2348 91.767 63.3241 92.9732 64.4441C94.8039 62.7425 95.9455 60.3518 95.9455 57.6595C95.9455 54.9456 94.7609 52.5118 92.887 50.8102C92.4347 51.0471 91.8962 51.1333 91.3578 51.0041C91.2932 50.9825 87.2008 49.9702 84.1855 52.5979C83.7762 52.9425 83.2808 53.1148 82.7639 53.1148C82.1608 53.1148 81.5578 52.8564 81.127 52.3825C80.3516 51.4779 80.4378 50.121 81.3424 49.3456C84.7455 46.3948 88.7732 46.3517 90.927 46.5887C91.1208 45.921 91.2501 45.2102 91.2501 44.4779C91.2501 40.6871 88.3424 37.564 84.6378 37.241C84.2716 33.5794 81.1701 30.7363 77.4224 30.7363C73.4162 30.7363 69.4747 34.484 69.4747 38.4902V38.7486C70.0347 38.5333 70.6377 38.3394 71.3054 38.2748C72.6839 38.124 74.8162 38.3825 77.0347 40.3425C77.9178 41.1394 78.0039 42.4963 77.207 43.3794C76.4101 44.2625 75.0531 44.3487 74.1701 43.5517C73.3085 42.7979 72.5116 42.4533 71.7362 42.5394C70.81 42.6256 69.9485 43.2933 69.4531 43.7887V77.3241C69.4531 81.3303 72.7054 84.5826 76.7116 84.5826C80.5454 84.5826 83.6685 81.6103 83.9485 77.8626C83.9055 77.6472 83.7762 77.0656 83.3024 76.5272C82.3116 75.4072 80.4593 75.3426 79.0808 75.4933C77.9177 75.6226 76.8408 74.761 76.7116 73.5764C76.5824 72.3918 77.4439 71.3364 78.6285 71.2072C81.6439 70.8841 84.0562 71.4872 85.8008 72.9733C87.1147 74.0718 87.7178 75.4072 87.9978 76.3764C89.807 75.0626 90.9701 72.9303 90.9701 70.5179C90.9701 69.6349 90.7978 68.7949 90.4962 67.9979C90.3885 67.9118 90.2378 67.8472 90.1516 67.7179C89.9793 67.5025 88.4285 65.801 85.6932 66.6625C84.5732 67.0287 83.3455 66.4041 82.9793 65.2625C82.6993 64.2072 83.3024 63.001 84.4439 62.6349Z" fill="#E26972"/>
<path d="M11.4278 133.994C9.28507 133.999 7.50872 133.262 6.09881 131.784C4.6889 130.292 3.98432 128.449 3.98511 126.256C3.98587 124.063 4.69172 122.225 6.1027 120.74C7.51364 119.242 9.29052 118.49 11.4333 118.485C12.7217 118.482 13.9082 118.8 14.993 119.438C16.0912 120.077 16.9454 120.944 17.5552 122.039L15.5206 123.282C15.1411 122.542 14.5852 121.96 13.853 121.534C13.1344 121.095 12.3275 120.876 11.4325 120.877C9.91353 120.881 8.6792 121.39 7.72953 122.403C6.79341 123.416 6.32505 124.699 6.32451 126.251C6.32399 127.803 6.79142 129.083 7.72685 130.092C8.6758 131.102 9.90981 131.604 11.4287 131.601C12.3238 131.599 13.1376 131.383 13.87 130.955C14.6026 130.512 15.1521 129.92 15.5186 129.178L17.5523 130.391C16.9553 131.488 16.1073 132.367 15.0086 133.024C13.9234 133.667 12.7298 133.991 11.4278 133.994ZM24.1333 133.964C22.6415 133.967 21.3736 133.429 20.3297 132.35C19.2858 131.27 18.7641 129.939 18.7647 128.359C18.7652 126.778 19.288 125.445 20.3325 124.361C21.3771 123.276 22.6454 122.731 24.1372 122.728C25.6426 122.725 26.9104 123.263 27.9407 124.343C28.9847 125.423 29.5062 126.753 29.5057 128.333C29.5051 129.915 28.9825 131.247 27.938 132.333C26.9068 133.418 25.6387 133.961 24.1333 133.964ZM21.8763 130.766C22.4864 131.405 23.2389 131.724 24.1341 131.721C25.0291 131.72 25.7819 131.397 26.3925 130.754C27.0029 130.113 27.3084 129.307 27.3086 128.339C27.3091 127.371 27.0042 126.567 26.3941 125.927C25.784 125.288 25.0315 124.97 24.1364 124.971C23.2413 124.974 22.4884 125.295 21.878 125.937C21.2675 126.581 20.9621 127.385 20.9618 128.354C20.9614 129.322 21.2663 130.126 21.8763 130.766ZM33.6906 124.779C34.2471 123.453 35.2917 122.788 36.8242 122.785L36.8232 125.285C35.9824 125.229 35.25 125.444 34.626 125.93C34.002 126.402 33.6899 127.185 33.6895 128.281L33.6876 133.666L31.4905 133.669L31.4942 122.989L33.6913 122.984L33.6906 124.779ZM39.6974 129.294C39.8599 130.104 40.2327 130.73 40.8157 131.17C41.3987 131.597 42.1107 131.809 42.9515 131.807C44.1179 131.804 44.9927 131.36 45.5762 130.477L47.3862 131.583C46.3822 133.138 44.8968 133.917 42.9304 133.922C41.2759 133.925 39.9402 133.401 38.9234 132.351C37.9067 131.284 37.3985 129.939 37.3991 128.316C37.3997 126.721 37.9019 125.389 38.9059 124.318C39.9099 123.233 41.1984 122.689 42.7716 122.685C44.2635 122.682 45.4837 123.228 46.4327 124.322C47.3952 125.417 47.8763 126.747 47.8757 128.313C47.8756 128.556 47.8483 128.875 47.7939 129.275L39.6974 129.294ZM39.6779 127.414L45.6586 127.4C45.5098 126.531 45.1641 125.878 44.6219 125.437C44.0931 124.996 43.4693 124.777 42.7506 124.779C41.9367 124.781 41.2586 125.018 40.716 125.489C40.1733 125.961 39.8272 126.601 39.6779 127.414ZM59.7749 133.883C58.4052 133.885 57.2389 133.562 56.2763 132.909C55.3272 132.256 54.663 131.359 54.2836 130.221L56.298 128.978C56.867 130.657 58.0465 131.495 59.8368 131.49C60.7183 131.489 61.3762 131.31 61.8102 130.951C62.2579 130.581 62.4819 130.104 62.482 129.519C62.4823 128.907 62.2451 128.444 61.7705 128.132C61.2959 127.805 60.4552 127.451 59.2484 127.07C58.5703 126.858 58.0212 126.66 57.6008 126.476C57.1804 126.292 56.733 126.036 56.2585 125.71C55.7975 125.369 55.4517 124.95 55.2215 124.451C54.9911 123.953 54.876 123.37 54.8763 122.701C54.8766 121.376 55.3245 120.329 56.2199 119.558C57.1153 118.773 58.1936 118.379 59.4548 118.375C60.594 118.373 61.5907 118.662 62.445 119.244C63.2991 119.826 63.9566 120.629 64.4174 121.654L62.4437 122.855C61.8475 121.461 60.8509 120.765 59.4541 120.768C58.7759 120.77 58.2333 120.942 57.8264 121.284C57.4195 121.613 57.2159 122.061 57.2157 122.632C57.2155 123.187 57.4188 123.628 57.8255 123.954C58.2458 124.267 58.9984 124.6 60.0831 124.953C60.6256 125.137 61.0189 125.278 61.2629 125.378C61.5206 125.463 61.8732 125.605 62.3207 125.802C62.7817 126.001 63.1273 126.2 63.3579 126.399C63.5884 126.598 63.8324 126.846 64.0899 127.144C64.3612 127.442 64.5509 127.784 64.6593 128.169C64.7677 128.552 64.8217 128.986 64.8215 129.472C64.8209 130.824 64.3527 131.9 63.4167 132.7C62.4943 133.486 61.2803 133.879 59.7749 133.883ZM72.0739 125.118L69.5513 125.124L69.5494 130.251C69.5494 130.692 69.6442 131.013 69.834 131.212C70.0237 131.396 70.3018 131.503 70.6679 131.529C71.0476 131.543 71.5155 131.535 72.0717 131.505L72.0709 133.577C70.3891 133.795 69.1822 133.647 68.4499 133.137C67.7178 132.612 67.352 131.652 67.3526 130.256L67.3543 125.129L65.4828 125.133L65.4835 122.912L67.3551 122.907L67.3559 120.601L69.5532 119.911L69.552 122.902L72.0746 122.897L72.0739 125.118ZM76.3629 124.681C76.9195 123.355 77.9639 122.691 79.4964 122.688L79.4956 125.187C78.6547 125.132 77.9224 125.347 77.2983 125.833C76.6743 126.305 76.3621 127.088 76.3617 128.185L76.3598 133.567L74.1629 133.573L74.1666 122.892L76.3635 122.886L76.3629 124.681ZM82.3699 129.197C82.5323 130.008 82.9051 130.633 83.4881 131.073C84.071 131.499 84.7829 131.711 85.6238 131.71C86.7901 131.706 87.665 131.263 88.2484 130.378L90.0587 131.485C89.0544 133.041 87.5693 133.819 85.6028 133.824C83.9482 133.828 82.6125 133.303 81.5958 132.253C80.579 131.188 80.0709 129.842 80.0715 128.219C80.072 126.624 80.5743 125.291 81.5782 124.22C82.5821 123.136 83.8707 122.591 85.4439 122.588C86.9357 122.585 88.1562 123.13 89.105 124.225C90.0676 125.319 90.5485 126.65 90.548 128.217C90.5479 128.459 90.5207 128.779 90.4663 129.178L82.3699 129.197ZM82.3501 127.315L88.331 127.303C88.1821 126.435 87.8365 125.78 87.2942 125.339C86.7654 124.899 86.1416 124.68 85.4228 124.681C84.6092 124.683 83.931 124.92 83.3883 125.392C82.8457 125.863 82.4997 126.504 82.3501 127.315ZM97.8333 122.56C98.9997 122.558 99.9421 122.947 100.661 123.728C101.379 124.51 101.738 125.585 101.737 126.952L101.736 133.509L99.5384 133.514L99.5406 127.191C99.5408 126.394 99.3377 125.782 98.931 125.356C98.5242 124.93 97.9682 124.717 97.263 124.719C96.49 124.721 95.8661 124.978 95.3912 125.492C94.9163 125.992 94.6787 126.762 94.6784 127.801L94.6764 133.526L92.4794 133.53L92.4832 122.85L94.6801 122.844L94.6797 124.212C95.3446 123.114 96.3958 122.563 97.8333 122.56ZM112.202 122.805L114.358 122.8L114.354 132.99C114.353 134.614 113.844 135.861 112.827 136.732C111.81 137.603 110.575 138.039 109.124 138.043C106.778 138.049 105.171 137.191 104.304 135.469L106.196 134.311C106.724 135.406 107.714 135.953 109.166 135.948C110.114 135.948 110.855 135.682 111.383 135.154C111.926 134.64 112.197 133.919 112.198 132.995L112.198 131.692C111.37 132.933 110.191 133.555 108.658 133.558C107.22 133.561 106.007 133.03 105.017 131.963C104.027 130.885 103.533 129.582 103.533 128.058C103.534 126.535 104.03 125.237 105.02 124.168C106.01 123.083 107.224 122.538 108.661 122.536C110.194 122.531 111.373 123.148 112.201 124.385L112.202 122.805ZM106.645 130.444C107.269 131.082 108.042 131.402 108.963 131.4C109.886 131.397 110.652 131.075 111.263 130.434C111.887 129.791 112.199 128.993 112.2 128.038C112.199 127.084 111.888 126.288 111.264 125.648C110.655 125.008 109.888 124.69 108.966 124.692C108.044 124.694 107.271 125.016 106.647 125.658C106.036 126.301 105.731 127.099 105.73 128.053C105.73 129.008 106.035 129.804 106.645 130.444ZM122.593 125.003L120.071 125.008L120.069 130.135C120.069 130.577 120.164 130.896 120.353 131.096C120.543 131.28 120.822 131.386 121.187 131.414C121.567 131.427 122.035 131.419 122.591 131.391L122.59 133.461C120.909 133.679 119.701 133.532 118.969 133.022C118.237 132.497 117.872 131.535 117.872 130.14L117.874 125.014L116.002 125.018L116.003 122.797L117.875 122.792L117.875 120.484L120.072 119.796L120.072 122.787L122.594 122.781L122.593 125.003ZM129.937 122.487C131.103 122.484 132.046 122.873 132.764 123.655C133.482 124.436 133.842 125.511 133.841 126.878L133.839 133.436L131.642 133.441L131.644 127.118C131.644 126.321 131.441 125.709 131.035 125.283C130.628 124.856 130.071 124.644 129.366 124.645C128.593 124.647 127.969 124.905 127.495 125.419C127.02 125.918 126.783 126.688 126.782 127.727L126.78 133.452L124.583 133.458L124.589 118.504L126.785 118.499L126.783 124.139C127.449 123.041 128.499 122.49 129.937 122.487Z" fill="#E26972"/>
</g>
<defs>
<clipPath id="clip0_1_34">
<rect width="134" height="137" fill="white"/>
</clipPath>
</defs>
</svg>
