<svg width="134" height="137" viewBox="0 0 134 137" fill="none" xmlns="http://www.w3.org/2000/svg">
<path d="M67.2163 0C66.0317 0 65.0625 0.969233 65.0625 2.15385V10.7693C65.0625 11.9539 66.0317 12.9231 67.2163 12.9231C68.401 12.9231 69.3702 11.9539 69.3702 10.7693V2.15385C69.3702 0.969233 68.401 0 67.2163 0Z" fill="#E26972"/>
<path d="M67.2163 99.0762C66.0317 99.0762 65.0625 100.045 65.0625 101.23V109.845C65.0625 111.03 66.0317 111.999 67.2163 111.999C68.401 111.999 69.3702 111.03 69.3702 109.845V101.23C69.3702 100.045 68.401 99.0762 67.2163 99.0762Z" fill="#E26972"/>
<path d="M49.7068 14.2384C50.0299 15.1215 50.8484 15.66 51.7315 15.66C51.9684 15.66 52.2268 15.6169 52.4638 15.5307C53.5838 15.1215 54.1653 13.8938 53.7561 12.7738L50.8053 4.67533C50.3961 3.55533 49.1684 2.97379 48.0484 3.38302C46.9284 3.79225 46.3468 5.01995 46.7561 6.13995L49.7068 14.2384Z" fill="#E26972"/>
<path d="M84.6647 97.7652C84.2554 96.6452 83.0278 96.0636 81.9078 96.4729C80.7877 96.8821 80.2062 98.1098 80.6154 99.2298L83.5662 107.328C83.8893 108.211 84.7078 108.75 85.5908 108.75C85.8278 108.75 86.0862 108.707 86.3231 108.621C87.4431 108.211 88.0247 106.984 87.6155 105.864L84.6647 97.7652Z" fill="#E26972"/>
<path d="M36.4742 22.7364C36.905 23.2533 37.5081 23.5118 38.1327 23.5118C38.6281 23.5118 39.1019 23.3395 39.5111 23.0164C40.4158 22.2626 40.545 20.8841 39.7696 19.9795L34.2342 13.3887C33.4804 12.4841 32.1234 12.3548 31.1973 13.1302C30.2927 13.8841 30.1634 15.2625 30.9388 16.1672L36.4742 22.7364Z" fill="#E26972"/>
<path d="M97.8983 89.2481C97.1444 88.3434 95.7875 88.2142 94.8613 88.9896C93.9567 89.7435 93.8275 91.1219 94.6029 92.0265L100.138 98.6173C100.569 99.1342 101.172 99.3927 101.797 99.3927C102.292 99.3927 102.766 99.2204 103.175 98.8973C104.08 98.1435 104.209 96.765 103.434 95.8604L97.8983 89.2481Z" fill="#E26972"/>
<path d="M81.9078 15.5307C82.1447 15.6169 82.4031 15.66 82.6401 15.66C83.5231 15.66 84.3416 15.1215 84.6647 14.2384L87.6155 6.13995C88.0247 5.01995 87.4431 3.79225 86.3231 3.38302C85.2031 2.97379 83.9754 3.55533 83.5662 4.67533L80.6154 12.7738C80.2062 13.8723 80.7877 15.1215 81.9078 15.5307Z" fill="#E26972"/>
<path d="M52.4638 96.4729C51.3438 96.0636 50.1161 96.6452 49.7068 97.7652L46.7561 105.864C46.3468 106.984 46.9284 108.211 48.0484 108.621C48.2853 108.707 48.5438 108.75 48.7807 108.75C49.6638 108.75 50.4822 108.211 50.8053 107.328L53.7561 99.2298C54.1653 98.1313 53.5838 96.8821 52.4638 96.4729Z" fill="#E26972"/>
<path d="M96.2398 23.503C96.8644 23.503 97.4675 23.2445 97.8983 22.7276L103.434 16.1368C104.209 15.2322 104.08 13.8753 103.175 13.0999C102.271 12.346 100.914 12.4537 100.138 13.3583L94.6029 19.9491C93.8275 20.8537 93.9567 22.2107 94.8613 22.986C95.249 23.3522 95.7444 23.503 96.2398 23.503Z" fill="#E26972"/>
<path d="M36.4653 89.2644L30.9299 95.8552C30.1761 96.7598 30.2838 98.1167 31.1884 98.8921C31.5976 99.2367 32.093 99.3875 32.5669 99.3875C33.1915 99.3875 33.7946 99.129 34.2253 98.6121L39.7607 92.0213C40.5146 91.1167 40.4069 89.7598 39.5023 88.9844C38.5977 88.2521 37.2407 88.3598 36.4653 89.2644Z" fill="#E26972"/>
<path d="M65.1446 76.5918C64.5846 76.8072 63.9815 77.001 63.3138 77.0656C63.12 77.0872 62.883 77.1087 62.6677 77.1087C61.3107 77.1087 59.48 76.6779 57.6061 74.9979C56.723 74.201 56.6369 72.8441 57.4338 71.961C58.2307 71.0779 59.5877 70.9918 60.4707 71.7887C61.3107 72.5426 62.1077 72.8656 62.883 72.801C63.8092 72.7149 64.6492 72.0687 65.1661 71.5733V37.9948C65.1661 33.9886 61.9138 30.7363 57.9077 30.7363C54.0738 30.7363 50.9507 33.7086 50.6707 37.4563C50.7138 37.6933 50.8861 38.4902 51.6184 39.0933C52.4369 39.761 53.7938 40.0194 55.5384 39.8256C56.7015 39.6748 57.7784 40.5579 57.9077 41.7425C58.0369 42.9271 57.1753 43.9825 55.9907 44.1117C55.4738 44.1548 54.9784 44.1979 54.483 44.1979C52.1569 44.1979 50.2615 43.5733 48.7969 42.3456C47.483 41.2471 46.8799 39.9117 46.5999 38.9425C44.7907 40.2563 43.6061 42.3887 43.6061 44.801C43.6061 45.684 43.7784 46.5025 44.0584 47.2994C44.1876 47.3856 44.3169 47.4717 44.4246 47.601C44.5969 47.8164 46.1692 49.5179 48.883 48.6564C50.003 48.2902 51.2307 48.9148 51.5969 50.0564C51.963 51.1979 51.3384 52.4041 50.1969 52.7702C49.163 53.0933 48.2153 53.2441 47.3538 53.2441C44.5322 53.2441 42.5938 51.8225 41.6676 50.961C39.8369 52.6625 38.6953 55.0533 38.6953 57.7456C38.6953 60.4595 39.8799 62.8933 41.7538 64.5949C42.2061 64.3579 42.7445 64.2718 43.283 64.401C43.3261 64.4225 47.4399 65.4349 50.4553 62.8072C51.3599 62.0318 52.7169 62.1179 53.4923 63.0225C54.2676 63.9272 54.1815 65.2841 53.2769 66.0595C50.6061 68.3856 47.5261 68.9026 45.2861 68.9026C44.683 68.9026 44.1661 68.8595 43.7138 68.8164C43.4984 69.4841 43.3907 70.1949 43.3907 70.9272C43.3907 74.7179 46.2984 77.841 50.003 78.1641C50.3692 81.8257 53.4707 84.6687 57.2184 84.6687C61.2246 84.6687 65.1661 80.921 65.1661 76.9149V76.5918H65.1446Z" fill="#E26972"/>
<path d="M126.83 41.6614C123.082 36.6645 118.409 32.4645 113.218 29.0183L110.892 27.4891C108.135 27.0368 105.27 28.8891 105.27 28.8891C102.233 31.5814 102.125 35.1999 102.125 35.1999L104.15 37.8707C104.085 43.4922 115.329 38.5384 115.329 38.5384C119.658 42.3076 117.245 49.6522 117.245 49.6522C109.621 45.323 104.172 50.363 104.172 50.363C101.092 46.8307 98.0977 45.5168 95.5347 45.323C95.4916 45.9476 95.4054 46.5722 95.2762 47.1753C98.3777 49.6953 100.273 53.5292 100.273 57.6861C100.273 61.9076 98.3131 65.7846 95.1254 68.3261C95.2762 69.0584 95.3408 69.8123 95.3408 70.5877C95.3408 71.5784 95.19 72.5046 94.9531 73.4092C98.0547 70.1784 99.8424 66.9692 99.8424 66.9692C102.642 66.7538 104.667 65.5046 104.667 65.5046C118.258 70.3938 128.682 63.5876 128.682 63.5876C132.042 64.1476 133.636 63.1999 133.636 63.1999C135.209 55.2953 131.224 47.4768 126.83 41.6614Z" fill="#E26972"/>
<path d="M39.3492 73.28C39.1769 72.5046 39.0692 71.6861 39.0692 70.8677C39.0692 69.963 39.1769 69.0584 39.3923 68.1969C36.2907 65.6769 34.3953 61.843 34.3953 57.6861C34.3953 53.4645 36.3553 49.5876 39.543 47.0461C39.4353 46.4645 39.3923 45.883 39.3707 45.2799C36.6784 45.3661 33.5123 46.5938 30.2384 50.363C30.2384 50.363 24.8107 45.3445 17.1645 49.6522C17.1645 49.6522 14.7522 42.3076 19.0815 38.5384C19.0815 38.5384 30.303 43.4922 30.2599 37.8707L32.2846 35.1999C32.2846 35.1999 32.1769 31.5814 29.1399 28.8891C29.1399 28.8891 26.2753 27.0368 23.5184 27.4891L21.1922 29.0183C15.9799 32.4645 11.3061 36.6861 7.5799 41.6614C3.20759 47.4984 -0.777032 55.2953 0.795278 63.1784C0.795278 63.1784 2.38913 64.1261 5.74913 63.5661C5.74913 63.5661 16.1738 70.3507 29.7646 65.483C29.7646 65.483 31.7892 66.7107 34.5892 66.9477C34.5461 66.9261 36.3123 70.0923 39.3492 73.28Z" fill="#E26972"/>
<path d="M84.4439 62.6349C88.7947 61.2348 91.767 63.3241 92.9732 64.4441C94.8039 62.7425 95.9455 60.3518 95.9455 57.6595C95.9455 54.9456 94.7609 52.5118 92.887 50.8102C92.4347 51.0471 91.8962 51.1333 91.3578 51.0041C91.2932 50.9825 87.2008 49.9702 84.1855 52.5979C83.7762 52.9425 83.2808 53.1148 82.7639 53.1148C82.1608 53.1148 81.5578 52.8564 81.127 52.3825C80.3516 51.4779 80.4378 50.121 81.3424 49.3456C84.7455 46.3948 88.7732 46.3517 90.927 46.5887C91.1208 45.921 91.2501 45.2102 91.2501 44.4779C91.2501 40.6871 88.3424 37.564 84.6378 37.241C84.2716 33.5794 81.1701 30.7363 77.4224 30.7363C73.4162 30.7363 69.4747 34.484 69.4747 38.4902V38.7486C70.0347 38.5333 70.6377 38.3394 71.3054 38.2748C72.6839 38.124 74.8162 38.3825 77.0347 40.3425C77.9178 41.1394 78.0039 42.4963 77.207 43.3794C76.4101 44.2625 75.0531 44.3487 74.1701 43.5517C73.3085 42.7979 72.5116 42.4533 71.7362 42.5394C70.81 42.6256 69.9485 43.2933 69.4531 43.7887V77.3241C69.4531 81.3303 72.7054 84.5826 76.7116 84.5826C80.5454 84.5826 83.6685 81.6103 83.9485 77.8626C83.9055 77.6472 83.7762 77.0656 83.3024 76.5272C82.3116 75.4072 80.4593 75.3426 79.0808 75.4933C77.9177 75.6226 76.8408 74.761 76.7116 73.5764C76.5824 72.3918 77.4439 71.3364 78.6285 71.2072C81.6439 70.8841 84.0562 71.4872 85.8008 72.9733C87.1147 74.0718 87.7178 75.4072 87.9978 76.3764C89.807 75.0626 90.9701 72.9303 90.9701 70.5179C90.9701 69.6349 90.7978 68.7949 90.4962 67.9979C90.3885 67.9118 90.2378 67.8472 90.1516 67.7179C89.9793 67.5025 88.4285 65.801 85.6932 66.6625C84.5732 67.0287 83.3455 66.4041 82.9793 65.2625C82.6993 64.2072 83.3024 63.001 84.4439 62.6349Z" fill="#E26972"/>
<path d="M11.629 135.487C9.4871 135.548 7.69221 134.858 6.24436 133.417C4.79615 131.962 4.04392 130.138 3.9877 127.945C3.93147 125.753 4.58931 123.897 5.96122 122.376C7.33276 120.842 9.0895 120.044 11.2314 119.984C12.5193 119.947 13.7137 120.234 14.8147 120.844C15.9291 121.454 16.8056 122.298 17.4436 123.377L15.442 124.673C15.0434 123.943 14.4726 123.375 13.7296 122.969C12.9998 122.548 12.1875 122.35 11.2928 122.375C9.77443 122.418 8.55375 122.959 7.63072 123.996C6.72124 125.033 6.28639 126.328 6.3262 127.88C6.366 129.431 6.86655 130.699 7.82788 131.683C8.80275 132.668 10.0494 133.138 11.5677 133.095C12.4624 133.07 13.2703 132.833 13.9914 132.386C14.7122 131.924 15.2461 131.318 15.5932 130.567L17.6578 131.726C17.0895 132.839 16.2646 133.739 15.1834 134.425C14.1152 135.096 12.9305 135.451 11.629 135.487ZM24.3294 135.127C22.8382 135.169 21.5567 134.664 20.4852 133.613C19.4135 132.56 18.8574 131.243 18.817 129.664C18.7764 128.083 19.2643 126.737 20.2803 125.626C21.2964 124.514 22.5501 123.937 24.0413 123.895C25.5461 123.853 26.8275 124.358 27.8855 125.411C28.9572 126.463 29.5131 127.779 29.5537 129.359C29.5942 130.94 29.1064 132.285 28.0904 133.398C27.0878 134.509 25.8342 135.085 24.3294 135.127ZM21.9901 131.989C22.6166 132.612 23.3771 132.911 24.2719 132.885C25.1666 132.861 25.9107 132.518 26.5044 131.86C27.098 131.203 27.3824 130.389 27.3575 129.422C27.3328 128.454 27.0071 127.658 26.3806 127.034C25.7541 126.411 24.9936 126.113 24.0988 126.137C23.2041 126.163 22.4598 126.504 21.8663 127.162C21.2727 127.821 20.9883 128.633 21.0132 129.602C21.0379 130.569 21.3636 131.365 21.9901 131.989ZM33.6448 125.697C34.1666 124.357 35.1936 123.665 36.7255 123.622L36.7895 126.121C35.9475 126.087 35.2209 126.321 34.6098 126.823C33.9982 127.311 33.7066 128.102 33.7347 129.198L33.8727 134.581L31.6765 134.641L31.4026 123.965L33.5988 123.903L33.6448 125.697ZM39.7669 130.054C39.9504 130.86 40.3393 131.476 40.9336 131.901C41.5275 132.312 42.2447 132.506 43.0852 132.482C44.2511 132.449 45.1141 131.982 45.6744 131.084L47.5126 132.143C46.5493 133.723 45.0847 134.541 43.1191 134.597C41.4652 134.643 40.1163 134.154 39.0726 133.13C38.0285 132.09 37.4855 130.759 37.4439 129.136C37.4031 127.542 37.8705 126.197 38.8463 125.101C39.8218 123.99 41.0957 123.413 42.6683 123.368C44.1596 123.326 45.3936 123.84 46.3707 124.909C47.3613 125.979 47.8768 127.296 47.9169 128.861C47.9231 129.104 47.9042 129.424 47.8602 129.825L39.7669 130.054ZM39.6985 128.175L45.6769 128.006C45.5055 127.141 45.143 126.497 44.5895 126.071C44.0494 125.644 43.4201 125.441 42.7017 125.462C41.8882 125.485 41.2164 125.739 40.6863 126.224C40.156 126.71 39.8267 127.359 39.6985 128.175ZM59.9569 134.12C58.5877 134.158 57.4134 133.865 56.4341 133.237C55.4684 132.609 54.7811 131.73 54.3723 130.602L56.3537 129.307C56.9661 130.971 58.167 131.778 59.9565 131.726C60.8377 131.702 61.4907 131.506 61.9153 131.136C62.3532 130.755 62.5647 130.272 62.5496 129.687C62.534 129.075 62.2849 128.619 61.8023 128.319C61.3194 128.005 60.4698 127.673 59.2535 127.323C58.5701 127.129 58.016 126.945 57.591 126.772C57.166 126.599 56.7121 126.355 56.2292 126.041C55.7595 125.712 55.403 125.302 55.1599 124.81C54.9166 124.318 54.7864 123.738 54.7693 123.069C54.7352 121.745 55.1557 120.686 56.0308 119.892C56.9055 119.084 57.9732 118.662 59.2339 118.626C60.3726 118.594 61.3765 118.857 62.2456 119.417C63.1146 119.976 63.7927 120.762 64.28 121.774L62.3382 123.026C61.7059 121.648 60.6916 120.978 59.2953 121.018C58.6174 121.037 58.0795 121.223 57.6816 121.576C57.2834 121.915 57.0915 122.369 57.1061 122.939C57.1204 123.494 57.3351 123.93 57.7501 124.245C58.1784 124.547 58.9394 124.86 60.0329 125.185C60.58 125.355 60.9768 125.486 61.2233 125.579C61.4831 125.657 61.8393 125.79 62.2918 125.976C62.7578 126.163 63.1085 126.352 63.3441 126.545C63.5797 126.738 63.8301 126.98 64.0953 127.271C64.3742 127.562 64.5728 127.899 64.6911 128.281C64.8094 128.661 64.8747 129.094 64.8871 129.579C64.9217 130.931 64.4816 132.019 63.5667 132.843C62.665 133.652 61.4617 134.077 59.9569 134.12ZM72.0239 125.038L69.5023 125.11L69.6337 130.235C69.6451 130.676 69.7482 130.994 69.9431 131.188C70.1376 131.368 70.4183 131.467 70.785 131.484C71.165 131.488 71.6325 131.468 72.1877 131.423L72.2408 133.495C70.5652 133.756 69.3549 133.64 68.6096 133.149C67.8641 132.643 67.4734 131.693 67.4377 130.297L67.3062 125.172L65.4354 125.225L65.3784 123.004L67.2493 122.951L67.1901 120.645L69.3688 119.899L69.4453 122.889L71.9669 122.818L72.0239 125.038ZM76.3001 124.49C76.8221 123.15 77.8489 122.459 79.3808 122.416L79.4449 124.914C78.6029 124.881 77.8764 125.115 77.2651 125.617C76.6536 126.105 76.3619 126.896 76.39 127.993L76.528 133.373L74.3319 133.436L74.0581 122.759L76.2541 122.696L76.3001 124.49ZM82.4224 128.848C82.6059 129.655 82.9948 130.27 83.589 130.695C84.1828 131.105 84.9 131.299 85.7406 131.276C86.9064 131.242 87.7695 130.776 88.3297 129.876L90.1681 130.936C89.2046 132.517 87.7402 133.334 85.7745 133.39C84.1206 133.437 82.7717 132.947 81.728 131.923C80.6839 130.885 80.141 129.553 80.0994 127.93C80.0585 126.336 80.5259 124.99 81.5017 123.894C82.4771 122.784 83.7511 122.206 85.3237 122.162C86.8149 122.12 88.0491 122.633 89.0261 123.703C90.0168 124.772 90.5321 126.09 90.5723 127.656C90.5785 127.898 90.5596 128.219 90.5156 128.619L82.4224 128.848ZM82.3538 126.968L88.3323 126.8C88.1609 125.936 87.7984 125.29 87.2448 124.864C86.7048 124.438 86.0755 124.235 85.357 124.255C84.5437 124.278 83.8719 124.532 83.3416 125.018C82.8114 125.503 82.4822 126.153 82.3538 126.968ZM97.7082 121.812C98.8741 121.779 99.8263 122.144 100.565 122.906C101.303 123.669 101.69 124.734 101.725 126.101L101.894 132.656L99.6973 132.718L99.5352 126.397C99.5147 125.6 99.2958 124.994 98.8781 124.578C98.4604 124.163 97.8991 123.965 97.1942 123.985C96.4215 124.007 95.8044 124.28 95.3431 124.806C94.8813 125.318 94.6638 126.094 94.6905 127.133L94.8373 132.856L92.6411 132.917L92.3674 122.241L94.5634 122.178L94.5985 123.545C95.2347 122.43 96.2712 121.852 97.7082 121.812ZM112.078 121.683L114.233 121.622L114.494 131.809C114.536 133.432 114.059 134.692 113.065 135.589C112.071 136.486 110.848 136.954 109.397 136.996C107.052 137.063 105.424 136.247 104.512 134.548L106.373 133.341C106.93 134.422 107.934 134.943 109.385 134.901C110.333 134.876 111.066 134.591 111.581 134.049C112.11 133.521 112.362 132.794 112.339 131.87L112.305 130.567C111.51 131.829 110.347 132.482 108.815 132.525C107.378 132.565 106.151 132.066 105.134 131.025C104.116 129.973 103.588 128.683 103.549 127.16C103.51 125.637 103.972 124.327 104.934 123.232C105.896 122.122 107.095 121.546 108.532 121.506C110.064 121.462 111.259 122.048 112.118 123.263L112.078 121.683ZM106.722 129.464C107.362 130.086 108.143 130.385 109.064 130.36C109.986 130.333 110.744 129.991 111.338 129.334C111.945 128.675 112.236 127.869 112.212 126.915C112.187 125.961 111.855 125.173 111.215 124.55C110.589 123.926 109.814 123.628 108.893 123.654C107.971 123.68 107.206 124.022 106.599 124.68C106.005 125.338 105.721 126.144 105.745 127.098C105.77 128.052 106.095 128.84 106.722 129.464ZM122.523 123.61L120.002 123.681L120.133 128.806C120.145 129.248 120.248 129.565 120.442 129.76C120.637 129.939 120.918 130.037 121.284 130.056C121.664 130.059 122.132 130.039 122.687 129.996L122.74 132.066C121.065 132.327 119.854 132.212 119.109 131.721C118.363 131.215 117.973 130.263 117.937 128.868L117.806 123.744L115.935 123.797L115.878 121.576L117.749 121.523L117.689 119.216L119.868 118.471L119.945 121.461L122.466 121.389L122.523 123.61ZM129.799 120.904C130.965 120.871 131.917 121.236 132.656 121.999C133.394 122.761 133.781 123.826 133.816 125.193L133.984 131.748L131.788 131.81L131.626 125.49C131.605 124.693 131.386 124.086 130.969 123.671C130.551 123.255 129.989 123.057 129.284 123.077C128.512 123.099 127.895 123.373 127.434 123.899C126.972 124.41 126.755 125.186 126.781 126.225L126.928 131.948L124.732 132.011L124.349 117.062L126.545 117L126.689 122.638C127.326 121.523 128.362 120.945 129.799 120.904Z" fill="#E26972"/>
</svg>
