<svg width="136" height="159" viewBox="0 0 136 159" fill="none" xmlns="http://www.w3.org/2000/svg">
<g clip-path="url(#clip0_1_50)">
<path d="M124.184 97.4385C124.181 97.7078 124.072 97.9652 123.88 98.1542C123.688 98.3431 123.43 98.4483 123.16 98.4465L11.4446 97.6059C11.1752 97.6041 10.9177 97.4947 10.7286 97.3029C10.5396 97.1111 10.4346 96.8519 10.4366 96.5826C10.4387 96.3131 10.5475 96.0556 10.7395 95.8667C10.9314 95.6776 11.1905 95.5725 11.4598 95.5746L123.175 96.4153C123.444 96.4174 123.703 96.5264 123.891 96.7183C124.08 96.9102 124.185 97.1692 124.184 97.4385ZM11.949 30.5764L123.665 31.4171C123.934 31.4191 124.193 31.3141 124.385 31.1251C124.577 30.936 124.685 30.6785 124.688 30.4092C124.69 30.1398 124.585 29.8807 124.396 29.6888C124.207 29.4968 123.949 29.3879 123.68 29.3859L11.9643 28.5453C11.6949 28.5432 11.4358 28.6483 11.2439 28.8373C11.052 29.0263 10.943 29.2838 10.941 29.5531C10.939 29.8226 11.044 30.0817 11.2331 30.2736C11.4221 30.4655 11.6796 30.5744 11.949 30.5764ZM45.54 20.6727L53.6649 20.7338L53.6343 24.7962L82.071 25.0102L82.1015 20.9478L90.2263 21.0089C91.8424 21.0211 93.3971 20.3907 94.5485 19.2566C95.6998 18.1225 96.3535 16.5774 96.3657 14.9612C96.3778 13.3451 95.7475 11.7904 94.6134 10.639C93.4792 9.48761 91.9341 8.83395 90.318 8.82179L45.6318 8.48552C44.0156 8.47336 42.4609 9.10372 41.3096 10.2379C40.1582 11.3721 39.5045 12.9171 39.4923 14.5332C39.4802 16.1494 40.1105 17.7041 41.2447 18.8554C42.3789 20.0069 43.9239 20.6605 45.54 20.6727ZM73.2278 120.415C73.2242 121.533 72.9128 122.629 72.3279 123.582C71.743 124.536 70.9071 125.309 69.9118 125.819C68.9164 126.329 67.8 126.554 66.6849 126.472C65.5696 126.39 64.4986 126.002 63.589 125.351C62.6794 124.701 61.9664 123.813 61.5281 122.784C61.0897 121.755 60.9428 120.626 61.1036 119.519C61.2645 118.412 61.7266 117.371 62.4397 116.509C63.1526 115.648 64.089 114.999 65.1461 114.635L65.2405 102.073L69.303 102.104L69.2085 114.665C70.39 115.092 71.4107 115.873 72.1304 116.903C72.85 117.932 73.2334 119.159 73.2278 120.415ZM69.1654 120.384C69.1684 119.983 69.0523 119.589 68.8316 119.253C68.6109 118.918 68.2956 118.655 67.9256 118.499C67.5557 118.342 67.1476 118.299 66.7529 118.374C66.3583 118.449 65.995 118.64 65.7087 118.922C65.4225 119.204 65.2264 119.565 65.145 119.958C65.0637 120.352 65.1009 120.76 65.2518 121.133C65.4027 121.505 65.6607 121.824 65.993 122.05C66.3254 122.275 66.7172 122.398 67.1189 122.4C67.6575 122.404 68.1753 122.193 68.5589 121.816C68.9425 121.438 69.1606 120.923 69.1654 120.384ZM94.0594 51.5074C94.4611 51.5104 94.8547 51.3942 95.1904 51.1735C95.5262 50.9529 95.7889 50.6377 95.9454 50.2676C96.1019 49.8976 96.1452 49.4895 96.0698 49.0949C95.9944 48.7003 95.8036 48.3369 95.5218 48.0508C95.2398 47.7645 94.8793 47.5683 94.486 47.487C94.0925 47.4056 93.6838 47.4428 93.3115 47.5937C92.9392 47.7447 92.62 48.0027 92.3943 48.335C92.1686 48.6674 92.0465 49.0591 92.0435 49.4609C92.0398 49.9995 92.25 50.5176 92.628 50.9012C93.006 51.285 93.5208 51.503 94.0594 51.5074ZM85.7513 75.8206C86.153 75.8236 86.5466 75.7074 86.8822 75.4868C87.2179 75.266 87.4807 74.9508 87.6372 74.5808C87.7938 74.2108 87.8371 73.8027 87.7616 73.4081C87.6862 73.0135 87.4955 72.6501 87.2135 72.3639C86.9316 72.0777 86.5712 71.8816 86.1777 71.8002C85.7843 71.7189 85.3756 71.7561 85.0033 71.907C84.631 72.0579 84.3118 72.3158 84.0861 72.6482C83.8604 72.9805 83.7383 73.3724 83.7353 73.7741C83.7316 74.3127 83.9419 74.8307 84.3198 75.2145C84.6978 75.5981 85.2127 75.8162 85.7513 75.8206ZM73.6558 63.5417C74.0575 63.5447 74.4511 63.4285 74.7868 63.2079C75.1225 62.9872 75.3852 62.6719 75.5418 62.3019C75.6983 61.932 75.7416 61.5239 75.6662 61.1292C75.5907 60.7346 75.4 60.3713 75.1182 60.085C74.8362 59.7989 74.4757 59.6027 74.0823 59.5213C73.6889 59.44 73.2801 59.4772 72.9078 59.6281C72.5355 59.779 72.2164 60.037 71.9907 60.3693C71.765 60.7017 71.6429 61.0935 71.6398 61.4952C71.6362 62.0338 71.8464 62.5518 72.2244 62.9356C72.6024 63.3193 73.1172 63.5373 73.6558 63.5417ZM12.506 91.5198L12.934 34.6465L122.619 35.4718L122.19 92.3452L12.506 91.5198ZM30.8631 81.5014C30.8527 83.1171 31.4837 84.6708 32.6175 85.8217C33.7513 86.9728 35.2953 87.627 36.9108 87.6409L101.909 88.1299C102.447 88.134 102.966 87.9239 103.349 87.5458C103.734 87.1678 103.952 86.6528 103.955 86.1141C103.96 85.5754 103.749 85.0572 103.371 84.6733C102.993 84.2895 102.478 84.0717 101.939 84.0676L36.9415 83.5785C36.4029 83.5741 35.8881 83.3561 35.5101 82.9723C35.1321 82.5887 34.9218 82.0706 34.9256 81.532L34.9714 75.4384L80.032 75.7775C80.501 77.1363 81.4353 78.2856 82.6697 79.0222C83.9041 79.7587 85.3591 80.0353 86.7777 79.8028C88.1962 79.5703 89.4868 78.8439 90.4216 77.7519C91.3563 76.6598 91.8749 75.2724 91.8856 73.835C91.8964 72.3976 91.3987 71.0027 90.4805 69.8968C89.5622 68.7909 88.2825 68.0452 86.8677 67.7914C85.4528 67.5377 83.9937 67.7924 82.7485 68.5104C81.5031 69.2284 80.5518 70.3635 80.0625 71.7151L35.002 71.376L35.0631 63.2513L67.9366 63.4986C68.4055 64.8575 69.3398 66.0067 70.5742 66.7433C71.8086 67.4799 73.2636 67.7564 74.6822 67.5239C76.1007 67.2915 77.3914 66.565 78.3262 65.473C79.2609 64.3809 79.7795 62.9936 79.7903 61.5562C79.801 60.1188 79.3033 58.7238 78.385 57.6179C77.4668 56.512 76.1871 55.7663 74.7722 55.5126C73.3573 55.2588 71.8983 55.5135 70.653 56.2315C69.4077 56.9496 68.4563 58.0846 67.9671 59.4363L35.0937 59.1889L35.1548 51.0642L88.3403 51.4644C88.8092 52.8232 89.7434 53.9724 90.9778 54.709C92.2122 55.4456 93.6673 55.7221 95.0858 55.4897C96.5044 55.2572 97.7951 54.5308 98.7298 53.4387C99.6645 52.3467 100.183 50.9593 100.194 49.5219C100.205 48.0845 99.7069 46.6896 98.7886 45.5835C97.8704 44.4776 96.5908 43.7319 95.1759 43.4782C93.7609 43.2246 92.3019 43.4792 91.0566 44.1972C89.8114 44.9152 88.86 46.0504 88.3707 47.402L35.1854 47.0018L35.2312 40.9082C35.2353 40.3694 35.0252 39.8512 34.6471 39.4674C34.2691 39.0836 33.7541 38.8658 33.2154 38.8617C32.6766 38.8576 32.1583 39.0677 31.7746 39.4458C31.3908 39.8238 31.1729 40.3389 31.1689 40.8776L30.8631 81.5014Z" fill="#323E4C"/>
<path d="M12.0866 157.135C10.0552 157.161 8.36713 156.411 7.02258 154.884C5.67793 153.344 5.00016 151.431 4.98923 149.148C4.97829 146.864 5.6377 144.944 6.96751 143.384C8.29723 141.811 9.97786 141.011 12.0093 140.986C13.2308 140.97 14.3574 141.29 15.3892 141.944C16.434 142.599 17.2482 143.493 17.8324 144.627L15.9098 145.942C15.5461 145.176 15.0161 144.574 14.3196 144.138C13.636 143.686 12.8699 143.466 12.0213 143.477C10.5812 143.496 9.41371 144.036 8.51872 145.101C7.6366 146.163 7.1994 147.504 7.20712 149.122C7.21488 150.737 7.66485 152.066 8.55707 153.108C9.4621 154.151 10.6346 154.661 12.0747 154.643C12.9234 154.633 13.6937 154.401 14.3858 153.947C15.0779 153.48 15.5958 152.857 15.9392 152.081L17.8739 153.326C17.3137 154.473 16.5144 155.396 15.4762 156.092C14.4508 156.772 13.321 157.12 12.0866 157.135ZM21.596 143.491C21.3404 143.79 21.0324 143.943 20.6725 143.947C20.3123 143.952 19.9968 143.807 19.7252 143.514C19.4665 143.206 19.3363 142.844 19.3343 142.429C19.3323 142.014 19.4592 141.656 19.715 141.357C19.9706 141.042 20.2849 140.882 20.6577 140.878C21.0306 140.873 21.3463 141.025 21.6049 141.333C21.8635 141.627 21.9938 141.981 21.9958 142.396C21.9979 142.811 21.8645 143.176 21.596 143.491ZM19.6921 156.751L19.639 145.628L21.7219 145.602L21.7751 156.724L19.6921 156.751ZM26.2322 147.416C26.7528 146.029 27.7395 145.327 29.1924 145.309L29.2048 147.912C28.4074 147.861 27.7141 148.094 27.1251 148.604C26.5361 149.101 26.2442 149.921 26.2497 151.064L26.2765 156.668L24.1936 156.694L24.1403 145.572L26.2233 145.546L26.2322 147.416ZM34.8865 156.849C33.4336 156.868 32.2159 156.319 31.2333 155.204C30.2636 154.09 29.7748 152.709 29.7669 151.064C29.7589 149.401 30.2344 148.01 31.1934 146.886C32.1653 145.746 33.3775 145.167 34.8304 145.149C35.7691 145.138 36.6253 145.386 37.3993 145.896C38.1733 146.405 38.7552 147.095 39.1451 147.965L37.3571 149.189C37.136 148.658 36.7998 148.247 36.3483 147.955C35.9097 147.65 35.4011 147.501 34.8225 147.507C33.9738 147.518 33.2619 147.861 32.6864 148.536C32.1239 149.21 31.8451 150.044 31.8497 151.037C31.8546 152.032 32.1414 152.857 32.7104 153.518C33.2922 154.178 34.0074 154.503 34.856 154.492C35.4216 154.485 35.9288 154.323 36.3773 154.006C36.8387 153.688 37.184 153.269 37.4128 152.748L39.212 153.904C38.8049 154.799 38.2167 155.51 37.4479 156.04C36.6789 156.568 35.8251 156.838 34.8865 156.849ZM47.2329 145.283L49.3157 145.257L49.3689 156.379L47.2861 156.406L47.2793 154.981C46.6547 156.132 45.661 156.715 44.298 156.732C43.1923 156.746 42.2968 156.349 41.6114 155.542C40.9261 154.735 40.5799 153.62 40.5731 152.197L40.5404 145.368L42.6234 145.341L42.6549 151.926C42.6589 152.756 42.8548 153.391 43.2426 153.831C43.6305 154.272 44.1588 154.486 44.8273 154.478C45.5602 154.469 46.1504 154.202 46.5979 153.678C47.0454 153.138 47.2666 152.328 47.2614 151.244L47.2329 145.283ZM53.7084 143.09C53.4527 143.389 53.1449 143.541 52.7848 143.546C52.4248 143.55 52.1091 143.406 51.8376 143.113C51.579 142.804 51.4488 142.443 51.4467 142.028C51.4448 141.612 51.5717 141.255 51.8274 140.955C52.083 140.64 52.3973 140.481 52.7702 140.476C53.143 140.472 53.4587 140.624 53.7174 140.931C53.9759 141.225 54.1062 141.579 54.1083 141.994C54.1102 142.41 53.977 142.775 53.7084 143.09ZM51.8046 156.349L51.7514 145.228L53.8343 145.201L53.8876 156.323L51.8046 156.349ZM61.6447 147.417L59.2532 147.447L59.2787 152.786C59.281 153.245 59.3725 153.579 59.5536 153.783C59.7346 153.974 59.9985 154.081 60.3458 154.107C60.706 154.117 61.1496 154.105 61.6766 154.067L61.6868 156.226C60.0935 156.468 58.9485 156.326 58.2517 155.801C57.5547 155.261 57.2028 154.265 57.1958 152.812L57.1702 147.474L55.3959 147.496L55.3848 145.182L57.1592 145.16L57.1476 142.757L59.2272 142.02L59.2421 145.134L61.6336 145.104L61.6447 147.417ZM73.8305 147.266L71.4389 147.294L71.4645 152.633C71.4667 153.092 71.5583 153.426 71.7394 153.63C71.9202 153.82 72.1843 153.928 72.5316 153.955C72.8917 153.964 73.3352 153.952 73.8624 153.916L73.8726 156.073C72.2794 156.316 71.1343 156.174 70.4374 155.648C69.7405 155.108 69.3885 154.113 69.3816 152.659L69.3561 147.321L67.5817 147.343L67.5707 145.029L69.345 145.007L69.3335 142.605L71.413 141.867L71.4279 144.981L73.8194 144.951L73.8305 147.266ZM77.8945 146.768C78.4151 145.382 79.4018 144.682 80.8547 144.663L80.8673 147.266C80.0697 147.217 79.3766 147.447 78.7874 147.959C78.1984 148.456 77.9066 149.275 77.912 150.417L77.9388 156.022L75.8561 156.048L75.8027 144.927L77.8855 144.901L77.8945 146.768ZM89.5801 144.755L91.663 144.728L91.7163 155.85L89.6333 155.876L89.6256 154.275C88.8473 155.545 87.7254 156.189 86.2596 156.207C84.9352 156.224 83.801 155.675 82.8572 154.56C81.913 153.43 81.4371 152.048 81.4293 150.417C81.4214 148.772 81.884 147.379 82.8172 146.239C83.7504 145.101 84.8792 144.523 86.2036 144.507C87.6693 144.489 88.7973 145.098 89.5877 146.334L89.5801 144.755ZM84.3923 152.939C84.9741 153.598 85.7022 153.923 86.5764 153.912C87.4508 153.902 88.1756 153.559 88.7511 152.885C89.3264 152.194 89.6116 151.338 89.6067 150.315C89.6018 149.292 89.3084 148.45 88.7266 147.79C88.1448 147.115 87.4167 146.783 86.5424 146.794C85.6681 146.805 84.9432 147.156 84.3679 147.844C83.7926 148.519 83.5073 149.368 83.5122 150.391C83.517 151.414 83.8104 152.264 84.3923 152.939ZM96.0478 142.56C95.7921 142.859 95.4843 143.012 95.1242 143.016C94.7642 143.021 94.4484 142.877 94.177 142.583C93.9184 142.276 93.7882 141.913 93.7861 141.498C93.7841 141.083 93.9111 140.725 94.1667 140.426C94.4224 140.112 94.7367 139.951 95.1095 139.946C95.4825 139.942 95.7982 140.094 96.0568 140.402C96.3154 140.696 96.4457 141.049 96.4477 141.465C96.4496 141.881 96.3164 142.245 96.0478 142.56ZM94.144 155.819L94.0907 144.698L96.1737 144.672L96.227 155.795L94.144 155.819ZM103.663 144.289C104.769 144.275 105.664 144.672 106.35 145.479C107.035 146.286 107.381 147.401 107.388 148.826L107.421 155.653L105.338 155.68L105.306 149.095C105.303 148.265 105.106 147.63 104.719 147.19C104.331 146.751 103.803 146.535 103.133 146.542C102.401 146.551 101.811 146.826 101.363 147.365C100.916 147.89 100.695 148.694 100.7 149.777L100.728 155.737L98.6455 155.763L98.5921 144.642L100.675 144.615L100.682 146.04C101.307 144.889 102.301 144.305 103.663 144.289ZM111.567 142.366C111.312 142.665 111.004 142.818 110.644 142.822C110.283 142.827 109.968 142.682 109.697 142.389C109.438 142.082 109.308 141.719 109.306 141.304C109.303 140.889 109.431 140.531 109.687 140.232C109.941 139.918 110.256 139.757 110.629 139.753C111.002 139.748 111.318 139.9 111.576 140.208C111.835 140.502 111.965 140.856 111.967 141.271C111.969 141.686 111.836 142.051 111.567 142.366ZM109.664 155.625L109.61 144.504L111.693 144.478L111.747 155.601L109.664 155.625ZM119.183 144.095C120.288 144.081 121.184 144.478 121.869 145.285C122.554 146.092 122.9 147.207 122.907 148.632L122.94 155.459L120.857 155.486L120.826 148.901C120.822 148.071 120.626 147.436 120.238 146.996C119.85 146.557 119.322 146.341 118.654 146.348C117.92 146.357 117.33 146.632 116.883 147.171C116.435 147.696 116.214 148.5 116.219 149.583L116.248 155.543L114.165 155.569L114.112 144.448L116.195 144.421L116.202 145.845C116.826 144.695 117.82 144.112 119.183 144.095ZM132.806 144.213L134.85 144.188L134.902 154.798C134.909 156.49 134.433 157.793 133.473 158.709C132.514 159.627 131.345 160.092 129.97 160.111C127.745 160.138 126.217 159.26 125.385 157.476L127.173 156.252C127.68 157.388 128.622 157.947 129.997 157.929C130.898 157.919 131.597 157.634 132.096 157.081C132.607 156.54 132.861 155.788 132.857 154.823L132.85 153.467C132.072 154.767 130.956 155.427 129.503 155.445C128.14 155.462 126.987 154.92 126.043 153.819C125.1 152.703 124.624 151.353 124.615 149.766C124.608 148.179 125.071 146.823 126.004 145.701C126.937 144.562 128.085 143.984 129.449 143.966C130.901 143.948 132.023 144.58 132.814 145.86L132.806 144.213ZM127.578 152.221C128.173 152.88 128.908 153.206 129.781 153.195C130.656 153.183 131.38 152.842 131.956 152.165C132.545 151.491 132.836 150.656 132.832 149.664C132.827 148.671 132.528 147.843 131.932 147.184C131.352 146.523 130.622 146.198 129.749 146.21C128.874 146.22 128.142 146.563 127.555 147.238C126.979 147.913 126.694 148.747 126.698 149.74C126.703 150.734 126.996 151.56 127.578 152.221Z" fill="#323E4C"/>
</g>
<defs>
<clipPath id="clip0_1_50">
<rect width="136" height="159" fill="white"/>
</clipPath>
</defs>
</svg>
